<?xml version="1.0" encoding="UTF-8"?>
<svg version="1.1" xmlns="http://www.w3.org/2000/svg" width="500" height="500">
<path d="M0 0 C4.60570182 3.25543582 9.06135598 6.76078158 12.73046875 11.0625 C12.73046875 11.7225 12.73046875 12.3825 12.73046875 13.0625 C13.39046875 13.0625 14.05046875 13.0625 14.73046875 13.0625 C23.35007937 24.19411142 26.62856544 38.24178981 25.73046875 52.0625 C24.1240118 62.61338251 19.91575231 73.06433588 12.73046875 81.0625 C12.07046875 81.0625 11.41046875 81.0625 10.73046875 81.0625 C10.36308594 81.94421875 10.36308594 81.94421875 9.98828125 82.84375 C5.87270799 90.10351898 -3.71984836 94.78462296 -11.49609375 96.96875 C-26.92795545 100.59977628 -40.75282936 99.76277344 -54.5859375 91.71484375 C-59.69264663 88.47454608 -64.46482997 84.80920128 -68.26953125 80.0625 C-68.26953125 79.4025 -68.26953125 78.7425 -68.26953125 78.0625 C-68.92953125 78.0625 -69.58953125 78.0625 -70.26953125 78.0625 C-78.77535068 61.94100503 -83.51039473 48.32207071 -78.2421875 29.87109375 C-73.58115786 16.41213667 -65.05075606 5.42991306 -52.46484375 -1.4765625 C-35.6015365 -9.46444488 -16.25670924 -9.63360548 0 0 Z M-45.26953125 12.0625 C-45.26953125 12.7225 -45.26953125 13.3825 -45.26953125 14.0625 C-46.03265625 14.35125 -46.79578125 14.64 -47.58203125 14.9375 C-50.41982433 16.02519013 -50.41982433 16.02519013 -53.26953125 18.0625 C-53.26953125 18.7225 -53.26953125 19.3825 -53.26953125 20.0625 C-53.92953125 20.0625 -54.58953125 20.0625 -55.26953125 20.0625 C-62.76639621 28.70790973 -64.91343981 38.32515237 -64.609375 49.5390625 C-63.54363092 60.5885011 -58.87539455 69.54434913 -50.32421875 76.6875 C-40.88605249 83.10698151 -30.07720746 84.26152819 -18.9453125 82.74609375 C-8.75624307 80.52411594 -1.10897065 75.00905039 4.53125 66.2734375 C9.99710777 56.5940426 11.61245531 46.10664828 9.046875 35.140625 C4.92278212 24.12022743 -2.85166869 15.90370861 -13.375 10.82421875 C-23.09366369 6.91671479 -35.75426145 8.21979489 -45.26953125 12.0625 Z " fill="#1871F6" transform="translate(129.26953125,198.9375)"/>
<path d="M0 0 C4.13318028 3.49024113 7.74454448 7.18998927 8.25 12.75 C8 15 8 15 7 16 C3.29308686 16.42261225 -0.30068921 16.5110159 -4 16 C-6 13.625 -6 13.625 -7 11 C-10.21830065 8.85446623 -11.26786507 8.70416132 -15 8.6875 C-15.86625 8.67074219 -16.7325 8.65398437 -17.625 8.63671875 C-20.0533665 8.81603981 -20.0533665 8.81603981 -21.80859375 10.36328125 C-23.23685908 11.99967549 -23.23685908 11.99967549 -23.0625 14.5 C-22.18617423 17.17323192 -22.18617423 17.17323192 -19.6875 18.625 C-16.47258628 19.82378139 -13.45968566 20.61615876 -10.125 21.375 C-3.20489317 23.03204791 1.53542958 25.47381532 6.5 30.5625 C8.7483379 35.71494103 8.73060892 40.46715957 8 46 C5.56799822 51.57333741 1.34607534 54.41554253 -4 57 C-12.87786306 59.45557914 -21.44787287 57.85070904 -30 55 C-30 54.34 -30 53.68 -30 53 C-30.598125 52.7525 -31.19625 52.505 -31.8125 52.25 C-34.46807354 50.7325294 -35.51460751 49.68785308 -37 47 C-37.5968113 44.29058231 -37.81708879 41.78939602 -38 39 C-37 38 -37 38 -34.49609375 37.90234375 C-33.48675781 37.91394531 -32.47742188 37.92554688 -31.4375 37.9375 C-30.42558594 37.94652344 -29.41367188 37.95554688 -28.37109375 37.96484375 C-27.19740234 37.98224609 -27.19740234 37.98224609 -26 38 C-25.71382812 38.78761719 -25.42765625 39.57523438 -25.1328125 40.38671875 C-23.64628394 43.81598636 -22.44021237 44.57904272 -19 46 C-15.40545331 46.45735783 -12.07244514 46.30248453 -8.5625 45.3125 C-6.8031157 44.03720405 -6.8031157 44.03720405 -6 41.625 C-5.740803 38.93707012 -5.740803 38.93707012 -7.4765625 36.9921875 C-10.87473542 34.3094194 -14.22195067 33.53469442 -18.375 32.5 C-25.50454876 30.70523512 -31.93415346 28.63374962 -36 22 C-37.76974865 16.69075405 -37.69835764 11.9258605 -35.5 6.8125 C-32.79289359 1.90103552 -28.40040744 -0.87843704 -23.140625 -2.61328125 C-15.18052399 -4.0513287 -7.20145318 -3.72932397 0 0 Z " fill="#1769E9" transform="translate(209,216)"/>
<path d="M0 0 C1.65322266 0.01740234 1.65322266 0.01740234 3.33984375 0.03515625 C4.99693359 0.04869141 4.99693359 0.04869141 6.6875 0.0625 C7.54214844 0.07410156 8.39679688 0.08570313 9.27734375 0.09765625 C10.95003945 4.97221675 12.62239199 9.84689479 14.29443359 14.72167969 C14.86269977 16.37828718 15.43105794 18.03486312 15.99951172 19.69140625 C16.81892995 22.0793431 17.63801185 24.46739509 18.45703125 26.85546875 C18.70919403 27.59008331 18.96135681 28.32469788 19.22116089 29.08157349 C20.59232524 33.08073095 21.94703846 37.08466063 23.27734375 41.09765625 C27.14716244 33.01523773 29.79102773 24.62612314 32.46484375 16.09765625 C33.13874124 13.956475 33.81414952 11.81580958 34.49324036 9.67626953 C35.10219542 7.75667 35.70590066 5.83540741 36.30932617 3.9140625 C37.27734375 1.09765625 37.27734375 1.09765625 38.27734375 0.09765625 C40.29698574 0.02521572 42.31901499 0.01388437 44.33984375 0.03515625 C45.99693359 0.04869141 45.99693359 0.04869141 47.6875 0.0625 C48.54214844 0.07410156 49.39679688 0.08570313 50.27734375 0.09765625 C51.69813051 4.58766111 50.29957819 7.8777176 48.77734375 12.16796875 C48.36730103 13.36061844 48.36730103 13.36061844 47.94897461 14.57736206 C47.36530401 16.268624 46.776537 17.95813433 46.18310547 19.64599609 C45.29885372 22.16146589 44.42918103 24.68155503 43.5625 27.203125 C39.73396427 38.2750349 35.59796595 49.20909733 31.27734375 60.09765625 C25.99734375 60.09765625 20.71734375 60.09765625 15.27734375 60.09765625 C13.19318495 54.15789935 11.11199533 48.21711326 9.03344727 42.27539062 C8.32721419 40.25785844 7.6201969 38.24060059 6.91235352 36.22363281 C5.88998078 33.30997859 4.8705136 30.39532107 3.8515625 27.48046875 C3.53893967 26.59150909 3.22631683 25.70254944 2.90422058 24.78665161 C1.08383495 19.56885427 -0.57915999 14.33271589 -2.09440613 9.01779175 C-2.5578574 7.11173488 -2.5578574 7.11173488 -3.72265625 6.09765625 C-3.84765625 3.59765625 -3.84765625 3.59765625 -3.72265625 1.09765625 C-2.72265625 0.09765625 -2.72265625 0.09765625 0 0 Z " fill="#0D69F5" transform="translate(290.72265625,212.90234375)"/>
<path d="M0 0 C4.14647469 3.64360436 6.90488685 7.52443425 8 13 C8.18608583 16.01257872 8.27236255 18.99134393 8 22 C7 23 7 23 4.31616211 23.11352539 C3.14835205 23.10828857 1.98054199 23.10305176 0.77734375 23.09765625 C-0.48271484 23.09443359 -1.74277344 23.09121094 -3.04101562 23.08789062 C-4.38151109 23.07953403 -5.72200588 23.07106907 -7.0625 23.0625 C-8.40689942 23.0574866 -9.7513006 23.05292342 -11.09570312 23.04882812 C-14.39717941 23.03699488 -17.69856803 23.02050971 -21 23 C-20.11712097 27.79972504 -20.11712097 27.79972504 -17.203125 31.4609375 C-14.5323558 32.11442358 -12.47271166 31.98325153 -9.75 31.625 C-8.85796875 31.51414062 -7.9659375 31.40328125 -7.046875 31.2890625 C-6.37140625 31.19367188 -5.6959375 31.09828125 -5 31 C-4.67 29.68 -4.34 28.36 -4 27 C-2.37509046 26.97301811 -0.75005367 26.95361243 0.875 26.9375 C2.23238281 26.92009766 2.23238281 26.92009766 3.6171875 26.90234375 C6 27 6 27 8 28 C7.08753803 34.3872338 4.45294222 36.78096396 -0.61328125 40.6171875 C-6.40959849 43.97544659 -13.25385725 43.56816746 -19.625 42.25 C-25.99232391 39.89173188 -29.67461022 36.93819603 -33 31 C-36.08899392 24.04976368 -35.71726106 17.52713855 -33.5 10.375 C-31.26060153 4.73298194 -28.12546291 1.21786581 -23 -2 C-14.71770613 -5.34197823 -7.51306665 -4.65810132 0 0 Z M-19 8 C-21.36980013 10.95377498 -21.36980013 10.95377498 -21 15 C-15.39 15 -9.78 15 -4 15 C-4.73988842 9.95515397 -4.73988842 9.95515397 -8 7 C-12.32200938 5.77856257 -15.05038618 5.8057701 -19 8 Z " fill="#0C68F3" transform="translate(447,231)"/>
<path d="M0 0 C0.91007813 0.00902344 1.82015625 0.01804688 2.7578125 0.02734375 C3.45648438 0.03894531 4.15515625 0.05054688 4.875 0.0625 C6.31920084 2.95090168 6.05856389 5.52623821 6.12109375 8.75 C6.15402078 10.10156925 6.18723261 11.4531316 6.22070312 12.8046875 C6.26819812 14.93777893 6.31265307 17.07084005 6.35180664 19.20410156 C6.39144232 21.2613595 6.44299284 23.31805184 6.49609375 25.375 C6.5211499 26.60863281 6.54620605 27.84226563 6.57202148 29.11328125 C6.57377664 32.18203844 6.57377664 32.18203844 8.875 34.0625 C12.93595958 34.53463673 12.93595958 34.53463673 16.875 34.0625 C20.17976277 30.72330734 20.27505967 27.94754254 20.3515625 23.36328125 C20.39796875 21.42678711 20.39796875 21.42678711 20.4453125 19.45117188 C20.46430861 18.09245842 20.48252848 16.73373391 20.5 15.375 C20.54795727 12.70422161 20.6052214 10.03386468 20.6640625 7.36328125 C20.69040771 5.58691284 20.69040771 5.58691284 20.71728516 3.7746582 C20.875 1.0625 20.875 1.0625 21.875 0.0625 C23.51840867 -0.03604655 25.1661461 -0.06722411 26.8125 -0.0625 C27.70839844 -0.06507813 28.60429687 -0.06765625 29.52734375 -0.0703125 C31.875 0.0625 31.875 0.0625 33.875 1.0625 C33.89964513 7.1680471 33.91783371 13.27356551 33.92993164 19.37915039 C33.93497288 21.45793156 33.94180574 23.53670916 33.95043945 25.61547852 C33.96251422 28.59652586 33.96823024 31.57752649 33.97265625 34.55859375 C33.97781754 35.49400497 33.98297882 36.4294162 33.98829651 37.39317322 C33.98837204 38.25399002 33.98844757 39.11480682 33.98852539 40.00170898 C33.990746 40.76337875 33.99296661 41.52504852 33.99525452 42.30979919 C33.875 44.0625 33.875 44.0625 32.875 45.0625 C31.02212498 45.13476502 29.16666122 45.1463122 27.3125 45.125 C26.30058594 45.11597656 25.28867188 45.10695313 24.24609375 45.09765625 C23.07240234 45.08025391 23.07240234 45.08025391 21.875 45.0625 C21.545 43.7425 21.215 42.4225 20.875 41.0625 C20.070625 41.701875 19.26625 42.34125 18.4375 43 C14.49050202 45.62200102 10.56127857 46.1630999 5.875 46.0625 C2.93813726 45.31493494 0.56600466 44.40800233 -2.125 43.0625 C-2.125 42.4025 -2.125 41.7425 -2.125 41.0625 C-2.785 41.0625 -3.445 41.0625 -4.125 41.0625 C-6.641626 35.95668092 -7.54722069 31.88410462 -7.41796875 26.16015625 C-7.41372391 25.4375914 -7.40947906 24.71502655 -7.40510559 23.9705658 C-7.38846418 21.68831307 -7.35084248 19.40698067 -7.3125 17.125 C-7.29743423 15.56707015 -7.28374916 14.0091263 -7.27148438 12.45117188 C-7.23860882 8.65459943 -7.1869309 4.85870513 -7.125 1.0625 C-4.60024538 -0.19987731 -2.81299534 -0.03606404 0 0 Z " fill="#4078D5" transform="translate(229.125,227.9375)"/>
<path d="M0 0 C1.66015625 1.3203125 1.66015625 1.3203125 4.16015625 3.7578125 C4.16015625 4.4178125 4.16015625 5.0778125 4.16015625 5.7578125 C4.82015625 5.7578125 5.48015625 5.7578125 6.16015625 5.7578125 C9.54146513 15.57970973 10.3572821 22.99660697 6.16015625 32.7578125 C5.50015625 33.7478125 4.84015625 34.7378125 4.16015625 35.7578125 C3.50015625 35.7578125 2.84015625 35.7578125 2.16015625 35.7578125 C2.16015625 36.4178125 2.16015625 37.0778125 2.16015625 37.7578125 C-3.6717711 41.77536245 -8.76350986 42.86218321 -15.83984375 42.7578125 C-22.53256082 41.46244791 -27.43765987 38.98125131 -31.703125 33.55859375 C-35.09672931 28.18247145 -36.59954441 22.05247513 -35.83984375 15.7578125 C-33.93980062 7.70354161 -30.94173124 2.2165163 -23.83984375 -2.2421875 C-15.53580118 -5.59294152 -7.42090364 -5.01029163 0 0 Z M-20.40234375 8.8828125 C-23.12911386 14.12273478 -22.74123211 21.09099598 -21.83984375 26.7578125 C-19.53150211 30.60348233 -19.53150211 30.60348233 -15.5859375 32.3515625 C-14.82410156 32.320625 -14.06226563 32.2896875 -13.27734375 32.2578125 C-12.51292969 32.2475 -11.74851562 32.2371875 -10.9609375 32.2265625 C-8.36280257 31.65238904 -7.47421982 30.82539668 -5.83984375 28.7578125 C-3.72252241 23.85454203 -2.81115878 19.03633103 -4.4453125 13.828125 C-5.59428889 11.01692389 -6.68192326 8.91573299 -8.83984375 6.7578125 C-13.39210775 5.84384444 -16.78056231 5.87938399 -20.40234375 8.8828125 Z " fill="#1363DF" transform="translate(372.83984375,231.2421875)"/>
<path d="M0 0 C2.63054237 1.01989116 3.34097249 2.15329329 4.85498047 4.51367188 C5.60714844 5.66609375 5.60714844 5.66609375 6.37451172 6.84179688 C6.88626953 7.65132812 7.39802734 8.46085938 7.92529297 9.29492188 C8.42931641 10.07351562 8.93333984 10.85210937 9.45263672 11.65429688 C10.47310609 13.23067412 11.48896362 14.81004619 12.50024414 16.39233398 C14.55904467 19.58349102 16.68221049 22.72970082 18.81274414 25.87329102 C22.09998124 30.97761993 22.39861278 35.36332339 21.66748047 41.24804688 C20.69429429 45.26397971 18.81197214 48.71491831 16.05029297 51.79492188 C15.39029297 51.79492188 14.73029297 51.79492188 14.05029297 51.79492188 C14.05029297 52.45492187 14.05029297 53.11492187 14.05029297 53.79492188 C7.38221027 57.89835738 1.83763767 58.81294403 -5.94970703 57.79492188 C-13.15398567 55.75893009 -17.59369119 50.75731215 -21.32470703 44.48242188 C-23.41665189 35.48705898 -21.50893616 28.6842792 -16.94970703 20.79492188 C-14.71504467 17.39521312 -12.40800954 14.06768023 -10.03564453 10.76367188 C-8.37353721 8.39812587 -6.89290659 6.07793459 -5.51220703 3.54492188 C-3.30078012 -0.34718949 -3.30078012 -0.34718949 0 0 Z M-0.94970703 13.79492188 C-2.8221667 16.07613678 -4.61520032 18.37499999 -6.38720703 20.73242188 C-6.89058594 21.37244141 -7.39396484 22.01246094 -7.91259766 22.671875 C-11.43735787 27.37623624 -13.53248589 31.8627573 -13.94970703 37.79492188 C-12.43282014 43.48324771 -9.9744075 46.72427159 -4.94970703 49.79492188 C-0.6576994 50.5897381 2.84506257 50.30379693 6.86279297 48.60742188 C11.40582179 44.900047 11.40582179 44.900047 13.47216797 39.52929688 C13.79293454 33.71985791 12.57861973 29.98595503 9.33935547 25.19335938 C8.91396484 24.731875 8.48857422 24.27039063 8.05029297 23.79492188 C7.39029297 23.79492188 6.73029297 23.79492188 6.05029297 23.79492188 C5.80279297 23.25867188 5.55529297 22.72242188 5.30029297 22.16992188 C3.7494434 19.22330769 1.96723739 16.51574622 0.05029297 13.79492188 C-0.27970703 13.79492188 -0.60970703 13.79492188 -0.94970703 13.79492188 Z " fill="#3177E2" transform="translate(101.94970703125,215.205078125)"/>
<path d="M0 0 C4.29 0 8.58 0 13 0 C13 3.3 13 6.6 13 10 C14.11375 9.95875 15.2275 9.9175 16.375 9.875 C20 10 20 10 22 12 C21.96712417 14.72869407 21.43602229 17.2966618 21 20 C18.36 20 15.72 20 13 20 C13.33 27.92 13.66 35.84 14 44 C16.31 44.66 18.62 45.32 21 46 C21.66 48.64 22.32 51.28 23 54 C17.5924657 56.41916008 12.69363764 56.21516535 7 55 C6.01 54.34 5.02 53.68 4 53 C4 52.34 4 51.68 4 51 C3.34 51 2.68 51 2 51 C0.18640687 47.11865969 -0.2373701 44.09306483 -0.1953125 39.82421875 C-0.18886719 38.66728516 -0.18242187 37.51035156 -0.17578125 36.31835938 C-0.15902344 35.12017578 -0.14226562 33.92199219 -0.125 32.6875 C-0.11597656 31.46998047 -0.10695313 30.25246094 -0.09765625 28.99804688 C-0.07413037 25.99849726 -0.04125653 22.99934956 0 20 C-0.969375 20.020625 -1.93875 20.04125 -2.9375 20.0625 C-6 20 -6 20 -7 19 C-7.1875 15.5625 -7.1875 15.5625 -7 12 C-6.34 11.34 -5.68 10.68 -5 10 C-3.35 10 -1.7 10 0 10 C0 6.7 0 3.4 0 0 Z " fill="#1C66DE" transform="translate(389,218)"/>
<path d="M0 0 C1.65322266 0.01740234 1.65322266 0.01740234 3.33984375 0.03515625 C4.99693359 0.04869141 4.99693359 0.04869141 6.6875 0.0625 C7.54214844 0.07410156 8.39679688 0.08570313 9.27734375 0.09765625 C10.69813051 4.58766111 9.29957819 7.8777176 7.77734375 12.16796875 C7.36730103 13.36061844 7.36730103 13.36061844 6.94897461 14.57736206 C6.36530401 16.268624 5.776537 17.95813433 5.18310547 19.64599609 C4.29885372 22.16146589 3.42918103 24.68155503 2.5625 27.203125 C-1.26603573 38.2750349 -5.40203405 49.20909733 -9.72265625 60.09765625 C-15.00265625 60.09765625 -20.28265625 60.09765625 -25.72265625 60.09765625 C-28.84765625 52.47265625 -28.84765625 52.47265625 -27.72265625 49.09765625 C-27.43390625 49.71640625 -27.14515625 50.33515625 -26.84765625 50.97265625 C-25.78545583 53.2309139 -25.78545583 53.2309139 -23.72265625 55.09765625 C-24.05265625 56.08765625 -24.38265625 57.07765625 -24.72265625 58.09765625 C-17.79265625 58.59265625 -17.79265625 58.59265625 -10.72265625 59.09765625 C-10.72265625 57.11765625 -10.72265625 55.13765625 -10.72265625 53.09765625 C-10.06265625 53.09765625 -9.40265625 53.09765625 -8.72265625 53.09765625 C-8.72265625 51.77765625 -8.72265625 50.45765625 -8.72265625 49.09765625 C-9.42390625 49.34515625 -10.12515625 49.59265625 -10.84765625 49.84765625 C-14.92775471 50.20244742 -16.62357677 48.63326674 -19.72265625 46.09765625 C-21.00583517 42.24811949 -20.78909262 39.1502749 -20.72265625 35.09765625 C-19.72265625 37.09765625 -18.72265625 39.09765625 -17.72265625 41.09765625 C-13.85283756 33.01523773 -11.20897227 24.62612314 -8.53515625 16.09765625 C-7.86125876 13.956475 -7.18585048 11.81580958 -6.50675964 9.67626953 C-5.89780458 7.75667 -5.29409934 5.83540741 -4.69067383 3.9140625 C-3.38714141 0.12149001 -3.38714141 0.12149001 0 0 Z " fill="#146BEE" transform="translate(331.72265625,212.90234375)"/>
<path d="M0 0 C4.14647469 3.64360436 6.90488685 7.52443425 8 13 C8.18608583 16.01257872 8.27236255 18.99134393 8 22 C7 23 7 23 4.31616211 23.11352539 C3.14835205 23.10828857 1.98054199 23.10305176 0.77734375 23.09765625 C-0.48271484 23.09443359 -1.74277344 23.09121094 -3.04101562 23.08789062 C-4.38151109 23.07953403 -5.72200588 23.07106907 -7.0625 23.0625 C-8.40689942 23.0574866 -9.7513006 23.05292342 -11.09570312 23.04882812 C-14.39717941 23.03699488 -17.69856803 23.02050971 -21 23 C-20.11712097 27.79972504 -20.11712097 27.79972504 -17.203125 31.4609375 C-14.5323558 32.11442358 -12.47271166 31.98325153 -9.75 31.625 C-8.85796875 31.51414062 -7.9659375 31.40328125 -7.046875 31.2890625 C-6.37140625 31.19367188 -5.6959375 31.09828125 -5 31 C-4.67 29.68 -4.34 28.36 -4 27 C-2.37509046 26.97301811 -0.75005367 26.95361243 0.875 26.9375 C2.23238281 26.92009766 2.23238281 26.92009766 3.6171875 26.90234375 C6 27 6 27 8 28 C7.08753803 34.3872338 4.45294222 36.78096396 -0.61328125 40.6171875 C-6.40959849 43.97544659 -13.25385725 43.56816746 -19.625 42.25 C-25.99232391 39.89173188 -29.67461022 36.93819603 -33 31 C-36.27552051 23.63007884 -35.53534358 16.44757175 -33 9 C-32.01 10.485 -32.01 10.485 -31 12 C-31.2981424 13.34164079 -31.64141484 14.67323492 -32 16 C-32.56767354 22.58501308 -31.45324501 28.26590797 -28 34 C-25.9641546 35.31148185 -25.9641546 35.31148185 -24 36 C-24 36.66 -24 37.32 -24 38 C-23.01 38 -22.02 38 -21 38 C-21 38.66 -21 39.32 -21 40 C-15.41499433 39.80101292 -15.41499433 39.80101292 -11 37 C-12.0828125 36.814375 -12.0828125 36.814375 -13.1875 36.625 C-18.61290323 35.41935484 -18.61290323 35.41935484 -21 34 C-22.85600646 29.52871172 -23.10094178 26.63512445 -22 22 C-12.62895894 21.11504503 -3.40228594 20.8829591 6 21 C5.505 16.545 5.505 16.545 5 12 C4.34 12 3.68 12 3 12 C2.95875 10.906875 2.9175 9.81375 2.875 8.6875 C2.39434602 4.75003667 2.39434602 4.75003667 -1.0625 3.0625 C-2.031875 2.711875 -3.00125 2.36125 -4 2 C-4 1.34 -4 0.68 -4 0 C-6.31 0.33 -8.62 0.66 -11 1 C-11 0.34 -11 -0.32 -11 -1 C-13.64 -0.67 -16.28 -0.34 -19 0 C-18.814375 0.61875 -18.62875 1.2375 -18.4375 1.875 C-18 4 -18 4 -19 6 C-17.35 6 -15.7 6 -14 6 C-17 8 -17 8 -19 8 C-19.66 10.31 -20.32 12.62 -21 15 C-21.33 15 -21.66 15 -22 15 C-24 7.375 -24 7.375 -24 4 C-24.66 3.67 -25.32 3.34 -26 3 C-26.33 3.99 -26.66 4.98 -27 6 C-29.0625 6.6875 -29.0625 6.6875 -31 7 C-29.47876056 2.89265352 -26.59829855 0.33559287 -23 -2 C-14.60548016 -5.2051803 -7.5899191 -4.70574984 0 0 Z " fill="#286FDC" transform="translate(447,231)"/>
<path d="M0 0 C3.63 0 7.26 0 11 0 C12 1 12 1 12.12025452 2.79066467 C12.1169236 3.95981667 12.1169236 3.95981667 12.11352539 5.15258789 C12.11344986 6.03342545 12.11337433 6.914263 12.11329651 7.8217926 C12.10813522 8.77907761 12.10297394 9.73636261 12.09765625 10.72265625 C12.0962413 11.69786728 12.09482635 12.67307831 12.09336853 13.67784119 C12.08775133 16.80609143 12.07519593 19.93427123 12.0625 23.0625 C12.05748722 25.17773334 12.05292393 27.29296781 12.04882812 29.40820312 C12.03777631 34.60549607 12.02050016 39.80273608 12 45 C8.04 45 4.08 45 0 45 C0 30.15 0 15.3 0 0 Z " fill="#106CF7" transform="translate(270,228)"/>
<path d="M0 0 C1.79244141 0.01740234 1.79244141 0.01740234 3.62109375 0.03515625 C5.41740234 0.04869141 5.41740234 0.04869141 7.25 0.0625 C8.17683594 0.07410156 9.10367188 0.08570313 10.05859375 0.09765625 C10.05859375 0.75765625 10.05859375 1.41765625 10.05859375 2.09765625 C11.45078125 2.28328125 11.45078125 2.28328125 12.87109375 2.47265625 C16.05859375 3.09765625 16.05859375 3.09765625 19.05859375 5.09765625 C19.42620106 7.42583589 19.76100956 9.75949475 20.05859375 12.09765625 C20.71859375 12.42765625 21.37859375 12.75765625 22.05859375 13.09765625 C19.08859375 13.09765625 16.11859375 13.09765625 13.05859375 13.09765625 C13.05859375 12.43765625 13.05859375 11.77765625 13.05859375 11.09765625 C12.06859375 10.76765625 11.07859375 10.43765625 10.05859375 10.09765625 C10.05859375 9.43765625 10.05859375 8.77765625 10.05859375 8.09765625 C8.16348676 8.01604877 6.26734871 7.95819166 4.37109375 7.91015625 C3.31535156 7.87535156 2.25960937 7.84054688 1.171875 7.8046875 C-2.40352659 8.14114311 -4.19426994 8.78846921 -6.94140625 11.09765625 C-7.75547123 13.58279208 -7.75547123 13.58279208 -7.75390625 16.28515625 C-7.80160156 17.18621094 -7.84929687 18.08726562 -7.8984375 19.015625 C-7.91970703 20.04623047 -7.91970703 20.04623047 -7.94140625 21.09765625 C-6.95140625 21.42765625 -5.96140625 21.75765625 -4.94140625 22.09765625 C-4.28140625 23.08765625 -3.62140625 24.07765625 -2.94140625 25.09765625 C-3.93140625 26.41765625 -4.92140625 27.73765625 -5.94140625 29.09765625 C-8.90623299 28.95975733 -11.15375109 28.80821289 -13.41796875 26.765625 C-17.02618163 22.42943935 -18.21706859 19.86339705 -18.17578125 14.20703125 C-17.83076873 11.10191854 -16.53103311 8.74703436 -14.94140625 6.09765625 C-14.28140625 6.09765625 -13.62140625 6.09765625 -12.94140625 6.09765625 C-12.61140625 4.77765625 -12.28140625 3.45765625 -11.94140625 2.09765625 C-9.890625 1.86979167 -7.83984375 1.64192708 -5.7890625 1.4140625 C-2.98676661 0.93417673 -3.24374097 0.10769392 0 0 Z " fill="#0B6AF7" transform="translate(191.94140625,214.90234375)"/>
<path d="M0 0 C0.33 14.19 0.66 28.38 1 43 C-2.63 43 -6.26 43 -10 43 C-10.33 41.02 -10.66 39.04 -11 37 C-11.8971875 37.495 -11.8971875 37.495 -12.8125 38 C-15 39 -15 39 -18 39 C-18 39.66 -18 40.32 -18 41 C-20.64 41.33 -23.28 41.66 -26 42 C-27.125 37.25 -27.125 37.25 -26 35 C-22.37 35.33 -18.74 35.66 -15 36 C-15 35.34 -15 34.68 -15 34 C-12.525 33.505 -12.525 33.505 -10 33 C-10.33 32.01 -10.66 31.02 -11 30 C-10.53166748 29.39897461 -10.06333496 28.79794922 -9.58081055 28.17871094 C-7.52115572 25.34004535 -7.65380061 23.61836019 -7.70703125 20.140625 C-7.71669922 19.02558594 -7.72636719 17.91054687 -7.73632812 16.76171875 C-7.76146484 15.60285156 -7.78660156 14.44398438 -7.8125 13.25 C-7.82603516 12.07566406 -7.83957031 10.90132812 -7.85351562 9.69140625 C-7.8888522 6.79380702 -7.93819021 3.89713573 -8 1 C-5 0 -5 0 0 0 Z " fill="#0C6AF9" transform="translate(261,230)"/>
<path d="M0 0 C0.8971875 0.5259375 0.8971875 0.5259375 1.8125 1.0625 C4.10813214 2.33304698 4.10813214 2.33304698 7 1 C7 1.66 7 2.32 7 3 C7.66 3 8.32 3 9 3 C9 3.66 9 4.32 9 5 C9.66 5 10.32 5 11 5 C11.598125 5.78375 12.19625 6.5675 12.8125 7.375 C15.18203551 10.21844262 16.65898524 10.68117838 20 12 C20.4640625 12.99 20.4640625 12.99 20.9375 14 C21.91271991 16.35520593 21.91271991 16.35520593 25.125 17.25 C26.07375 17.4975 27.0225 17.745 28 18 C28 22 28 22 26.5 23.625 C26.005 24.07875 25.51 24.5325 25 25 C25 25.66 25 26.32 25 27 C25 27.66 25 28.32 25 29 C21.05611828 28.41125507 18.17649717 27.21364728 14.75 25.1875 C13.87859375 24.68605469 13.0071875 24.18460937 12.109375 23.66796875 C9.71586225 21.77532071 9.50148551 20.91106224 9 18 C8.38125 17.690625 7.7625 17.38125 7.125 17.0625 C4.27616701 15.63808351 3.58863636 13.71392044 2 11 C-0.06954847 9.21655822 -0.06954847 9.21655822 -2 8 C-1.125 1.125 -1.125 1.125 0 0 Z " fill="#1471FA" transform="translate(61,264)"/>
<path d="M0 0 C1.65322266 0.01740234 1.65322266 0.01740234 3.33984375 0.03515625 C4.44457031 0.04417969 5.54929687 0.05320313 6.6875 0.0625 C7.54214844 0.07410156 8.39679688 0.08570313 9.27734375 0.09765625 C9.90234375 1.91015625 9.90234375 1.91015625 10.27734375 4.09765625 C9.28734375 5.58265625 9.28734375 5.58265625 8.27734375 7.09765625 C7.61734375 7.09765625 6.95734375 7.09765625 6.27734375 7.09765625 C6.27734375 7.75765625 6.27734375 8.41765625 6.27734375 9.09765625 C5.28734375 9.75765625 4.29734375 10.41765625 3.27734375 11.09765625 C2.80445465 13.55442821 2.80445465 13.55442821 2.77734375 16.34765625 C2.62125908 21.05621056 1.44146753 23.93383966 -0.72265625 28.09765625 C-1.7881375 31.50171217 -2.72665121 34.92488766 -3.66015625 38.3671875 C-4.01078125 39.26824219 -4.36140625 40.16929687 -4.72265625 41.09765625 C-6.20765625 41.59265625 -6.20765625 41.59265625 -7.72265625 42.09765625 C-7.72265625 41.43765625 -7.72265625 40.77765625 -7.72265625 40.09765625 C-7.06265625 40.09765625 -6.40265625 40.09765625 -5.72265625 40.09765625 C-6.05265625 38.44765625 -6.38265625 36.79765625 -6.72265625 35.09765625 C-8.70265625 35.59265625 -8.70265625 35.59265625 -10.72265625 36.09765625 C-11.6568927 33.08733881 -11.76715536 32.23115357 -10.72265625 29.09765625 C-10.06265625 29.09765625 -9.40265625 29.09765625 -8.72265625 29.09765625 C-8.67367188 28.44539063 -8.6246875 27.793125 -8.57421875 27.12109375 C-8.14503806 22.10411944 -7.34645512 17.87353528 -5.72265625 13.09765625 C-5.15482487 9.94166589 -4.65954355 6.78103951 -4.1875 3.609375 C-3.54303199 0.12708149 -3.54303199 0.12708149 0 0 Z " fill="#0C69F6" transform="translate(331.72265625,212.90234375)"/>
<path d="M0 0 C0.66 0.33 1.32 0.66 2 1 C2.33333333 3.33333333 2.66666667 5.66666667 3 8 C3.66 8.33 4.32 8.66 5 9 C6.53458262 15.66908837 6.47332199 21.08248847 3 27 C2.34 27.33 1.68 27.66 1 28 C1.33 28.99 1.66 29.98 2 31 C1.34 31 0.68 31 0 31 C0 30.34 0 29.68 0 29 C-0.66 29 -1.32 29 -2 29 C-2 30.32 -2 31.64 -2 33 C-5.70416126 35.37590142 -8.92984573 35.20500286 -13.25 35.125 C-15.14492188 35.09792969 -15.14492188 35.09792969 -17.078125 35.0703125 C-18.52445312 35.03550781 -18.52445312 35.03550781 -20 35 C-20.495 33.515 -20.495 33.515 -21 32 C-22.485 32.495 -22.485 32.495 -24 33 C-24 32.34 -24 31.68 -24 31 C-24.66 30.67 -25.32 30.34 -26 30 C-22.69005287 28.34502644 -19.00877 28.89915665 -15.375 28.9375 C-14.57320313 28.94201172 -13.77140625 28.94652344 -12.9453125 28.95117188 C-10.96350994 28.96296832 -8.98174567 28.98090395 -7 29 C-6.8563501 28.38777588 -6.7127002 27.77555176 -6.56469727 27.14477539 C-6 25 -6 25 -4.96484375 22.68359375 C-3.41718809 18.37898064 -3.59446504 14.01010886 -3.44140625 9.47265625 C-2.96734292 5.74307836 -1.85655375 3.24278054 0 0 Z " fill="#0B6AF8" transform="translate(374,236)"/>
<path d="M0 0 C2.64 0.33 5.28 0.66 8 1 C8.02891546 5.45831982 8.04676981 9.91661569 8.0625 14.375 C8.07087891 15.64601562 8.07925781 16.91703125 8.08789062 18.2265625 C8.09111328 19.43828125 8.09433594 20.65 8.09765625 21.8984375 C8.10289307 23.01911621 8.10812988 24.13979492 8.11352539 25.29443359 C8 28 8 28 7 30 C8.32 30.33 9.64 30.66 11 31 C10.45276317 34.37462715 9.9451 36.08235 8 39 C4.18273591 38.46982443 1.67610772 37.84345327 -1 35 C-1.28520621 32.20271136 -1.32934591 29.82880752 -1.171875 27.05078125 C-1.14401917 26.27816452 -1.11616333 25.50554779 -1.08746338 24.70951843 C-0.99411541 22.24264094 -0.87242725 19.77808878 -0.75 17.3125 C-0.6817235 15.64004926 -0.61529466 13.967522 -0.55078125 12.29492188 C-0.38861166 8.19541875 -0.20101694 4.09777455 0 0 Z " fill="#0A6BFB" transform="translate(224,230)"/>
<path d="M0 0 C-0.33 0.99 -0.66 1.98 -1 3 C0.98 2.67 2.96 2.34 5 2 C5 5 5 5 3 8 C2.18015625 7.9278125 1.3603125 7.855625 0.515625 7.78125 C-0.56203125 7.6884375 -1.6396875 7.595625 -2.75 7.5 C-3.81734375 7.4071875 -4.8846875 7.314375 -5.984375 7.21875 C-8.3179218 7.04947717 -10.66032182 7 -13 7 C-13.66 7 -14.32 7 -15 7 C-14.979375 7.94875 -14.95875 8.8975 -14.9375 9.875 C-15 13 -15 13 -16 15 C-16.07092842 17.2072923 -16.08415025 19.41667452 -16.0625 21.625 C-16.05347656 22.81351563 -16.04445313 24.00203125 -16.03515625 25.2265625 C-16.02355469 26.14179688 -16.01195312 27.05703125 -16 28 C-17.32 28 -18.64 28 -20 28 C-22.125 25.5625 -22.125 25.5625 -24 23 C-24.66 22.67 -25.32 22.34 -26 22 C-26.4770766 16.11605522 -25.31543521 10.4055837 -23 5 C-20.25 3 -20.25 3 -17 2 C-15.9275 1.4225 -14.855 0.845 -13.75 0.25 C-8.8766212 -1.3744596 -4.99470377 -0.83412558 0 0 Z " fill="#0968F4" transform="translate(366,230)"/>
<path d="M0 0 C0.598125 0.185625 1.19625 0.37125 1.8125 0.5625 C4.16408762 1.22093687 4.16408762 1.22093687 7 0 C8.09911549 3.29734646 8.1139456 5.72958745 8.09765625 9.19921875 C8.09443359 10.40771484 8.09121094 11.61621094 8.08789062 12.86132812 C8.07951172 14.12396484 8.07113281 15.38660156 8.0625 16.6875 C8.05798828 17.96173828 8.05347656 19.23597656 8.04882812 20.54882812 C8.03702873 23.69926564 8.02056597 26.84960949 8 30 C10.31 30 12.62 30 15 30 C15 30.66 15 31.32 15 32 C16.32 31.67 17.64 31.34 19 31 C19 32.32 19 33.64 19 35 C18 36 18 36 15.453125 36.0546875 C5.74424722 35.51004314 5.74424722 35.51004314 2.8125 32.5 C2.214375 31.675 1.61625 30.85 1 30 C0.67 29.67 0.34 29.34 0 29 C-0.08775605 26.85441173 -0.10695219 24.70595579 -0.09765625 22.55859375 C-0.09443359 21.25341797 -0.09121094 19.94824219 -0.08789062 18.60351562 C-0.07953401 17.2148431 -0.07106905 15.82617123 -0.0625 14.4375 C-0.05748666 13.04492344 -0.05292347 11.65234519 -0.04882812 10.25976562 C-0.03699434 6.8398013 -0.0205088 3.41992156 0 0 Z " fill="#0C6AFB" transform="translate(391,236)"/>
<path d="M0 0 C0.66 0.99 1.32 1.98 2 3 C1.7018576 4.34164079 1.35858516 5.67323492 1 7 C0.43232646 13.58501308 1.54675499 19.26590797 5 25 C7.0358454 26.31148185 7.0358454 26.31148185 9 27 C9 27.66 9 28.32 9 29 C9.99 29 10.98 29 12 29 C12 29.66 12 30.32 12 31 C17.58500567 30.80101292 17.58500567 30.80101292 22 28 C22.99 27.67 23.98 27.34 25 27 C25.33 25.35 25.66 23.7 26 22 C26.66 22 27.32 22 28 22 C28.33 20.68 28.66 19.36 29 18 C30.62490954 17.97301811 32.24994633 17.95361243 33.875 17.9375 C35.23238281 17.92009766 35.23238281 17.92009766 36.6171875 17.90234375 C39 18 39 18 41 19 C40.08753803 25.3872338 37.45294222 27.78096396 32.38671875 31.6171875 C26.59040151 34.97544659 19.74614275 34.56816746 13.375 33.25 C7.00767609 30.89173188 3.32538978 27.93819603 0 22 C-3.27552051 14.63007884 -2.53534358 7.44757175 0 0 Z " fill="#1E6EEA" transform="translate(414,240)"/>
<path d="M0 0 C1.59190467 3.18380933 0.28749598 6.28076324 -0.4375 9.625 C-0.65889648 10.68460938 -0.65889648 10.68460938 -0.88476562 11.765625 C-1.25049493 13.51168749 -1.62447121 15.25601884 -2 17 C-1.37222656 17.29777344 -0.74445313 17.59554687 -0.09765625 17.90234375 C2.0560625 19.02933624 3.297352 20.297352 5 22 C5.99 22.33 6.98 22.66 8 23 C8 25.97 8 28.94 8 32 C8.99 32.33 9.98 32.66 11 33 C11.33 33.66 11.66 34.32 12 35 C14.24993359 35.02707139 16.49996095 35.04642829 18.75 35.0625 C20.62945312 35.07990234 20.62945312 35.07990234 22.546875 35.09765625 C25.28536501 35.02021027 27.41880293 34.82780815 30 34 C30 32.68 30 31.36 30 30 C30.66 30 31.32 30 32 30 C32.495 31.98 32.495 31.98 33 34 C27.16807265 38.01754995 22.07633389 39.10437071 15 39 C8.30728293 37.70463541 3.40218388 35.22343881 -0.86328125 29.80078125 C-4.25688556 24.42465895 -5.75970066 18.29466263 -5 12 C-1.92885375 1.92885375 -1.92885375 1.92885375 0 0 Z " fill="#0B6AF7" transform="translate(342,235)"/>
<path d="M0 0 C1.12591553 0.04713135 2.25183105 0.0942627 3.41186523 0.14282227 C5.23427734 0.21533203 5.23427734 0.21533203 7.09350586 0.28930664 C8.37290039 0.34538086 9.65229492 0.40145508 10.97045898 0.45922852 C12.89535156 0.53753906 12.89535156 0.53753906 14.85913086 0.61743164 C18.0422929 0.74759812 21.22517902 0.88257852 24.40795898 1.02172852 C24.73795898 2.34172852 25.06795898 3.66172852 25.40795898 5.02172852 C24.41795898 5.02172852 23.42795898 5.02172852 22.40795898 5.02172852 C22.40795898 6.01172852 22.40795898 7.00172852 22.40795898 8.02172852 C21.41795898 8.02172852 20.42795898 8.02172852 19.40795898 8.02172852 C21.24129232 11.18839518 21.24129232 11.18839518 24.40795898 13.02172852 C21.43795898 12.52672852 21.43795898 12.52672852 18.40795898 12.02172852 C18.40795898 12.35172852 18.40795898 12.68172852 18.40795898 13.02172852 C12.79795898 13.02172852 7.18795898 13.02172852 1.40795898 13.02172852 C1.73795898 10.71172852 2.06795898 8.40172852 2.40795898 6.02172852 C1.41795898 6.02172852 0.42795898 6.02172852 -0.59204102 6.02172852 C-0.71579102 5.38235352 -0.83954102 4.74297852 -0.96704102 4.08422852 C-1.27641602 3.06329102 -1.27641602 3.06329102 -1.59204102 2.02172852 C-2.25204102 1.69172852 -2.91204102 1.36172852 -3.59204102 1.02172852 C-2.59204102 0.02172852 -2.59204102 0.02172852 0 0 Z " fill="#146EF6" transform="translate(89.592041015625,193.978271484375)"/>
<path d="M0 0 C0.309375 0.639375 0.61875 1.27875 0.9375 1.9375 C2.27819716 4.54002978 3.25555171 5.0590463 6 6 C8.66709069 6.16750414 8.66709069 6.16750414 11 6 C11 7.32 11 8.64 11 10 C10.34 10 9.68 10 9 10 C9 11.98 9 13.96 9 16 C7.22925083 16.02705729 5.45838289 16.04642195 3.6875 16.0625 C2.70136719 16.07410156 1.71523438 16.08570313 0.69921875 16.09765625 C-2 16 -2 16 -5 15 C-5.625 13 -5.625 13 -6 11 C-6.33 10.67 -6.66 10.34 -7 10 C-7.07179964 8.48071962 -7.08392007 6.95832518 -7.0625 5.4375 C-7.05347656 4.61121094 -7.04445313 3.78492188 -7.03515625 2.93359375 C-7.02355469 2.29550781 -7.01195312 1.65742188 -7 1 C-3.375 -1.125 -3.375 -1.125 0 0 Z " fill="#0B6AF7" transform="translate(312,256)"/>
<path d="M0 0 C3.63 0 7.26 0 11 0 C11 14.52 11 29.04 11 44 C7.04 44 3.08 44 -1 44 C-1 31.46 -1 18.92 -1 6 C1.19274086 10.38548172 1.23367512 12.55693528 1.1953125 17.390625 C1.1924826 18.09523865 1.18965271 18.79985229 1.18673706 19.52581787 C1.17557801 21.7673876 1.15048193 24.00855186 1.125 26.25 C1.11496464 27.77343171 1.10583976 29.29686971 1.09765625 30.8203125 C1.07565291 34.54700586 1.04115272 38.27346333 1 42 C3.64 42 6.28 42 9 42 C9 28.47 9 14.94 9 1 C6.03 1 3.06 1 0 1 C0 0.67 0 0.34 0 0 Z " fill="#1954C6" transform="translate(271,229)"/>
<path d="M0 0 C7.50147221 6.71940383 10.45258392 17.99111917 11.21875 27.80078125 C11.6029693 40.14382641 8.37454033 53.08162569 0.5 62.86328125 C-0.875 64.25 -0.875 64.25 -3 66 C-3.33 64.02 -3.66 62.04 -4 60 C-2.7625 59.4121875 -2.7625 59.4121875 -1.5 58.8125 C-0.675 58.214375 0.15 57.61625 1 57 C1.41780879 54.37305578 1.41780879 54.37305578 1 52 C2.32 52 3.64 52 5 52 C5.13277344 51.01257813 5.26554688 50.02515625 5.40234375 49.0078125 C5.57894531 47.72648437 5.75554687 46.44515625 5.9375 45.125 C6.19853516 43.21074219 6.19853516 43.21074219 6.46484375 41.2578125 C7 38 7 38 8 36 C8.09534254 34.3146804 8.12985758 32.62550734 8.125 30.9375 C8.12757813 30.03902344 8.13015625 29.14054687 8.1328125 28.21484375 C8.24738223 26.02621107 8.24738223 26.02621107 7 25 C6.602507 22.65276034 6.25631277 20.29671452 5.9375 17.9375 C5.76089844 16.64714844 5.58429688 15.35679687 5.40234375 14.02734375 C5.20318359 12.52880859 5.20318359 12.52880859 5 11 C4.34 11 3.68 11 3 11 C0 4.5 0 4.5 0 0 Z " fill="#4178CD" transform="translate(144,214)"/>
<path d="M0 0 C2.65576611 1.0378238 3.35036571 2.21264132 4.84667969 4.61743164 C5.57177734 5.76308594 5.57177734 5.76308594 6.31152344 6.93188477 C6.80265625 7.73432617 7.29378906 8.53676758 7.79980469 9.36352539 C8.30640625 10.16983398 8.81300781 10.97614258 9.33496094 11.80688477 C10.58413003 13.79848454 11.82173013 15.79637428 13.04980469 17.80102539 C12.38980469 18.46102539 11.72980469 19.12102539 11.04980469 19.80102539 C10.71980469 18.48102539 10.38980469 17.16102539 10.04980469 15.80102539 C9.38980469 15.80102539 8.72980469 15.80102539 8.04980469 15.80102539 C6.34299522 14.17549256 4.67320274 12.50986544 3.04980469 10.80102539 C2.62301509 14.61430494 2.62301509 14.61430494 4.29980469 16.30102539 C4.87730469 16.79602539 5.45480469 17.29102539 6.04980469 17.80102539 C10.25851324 21.7546607 11.9776096 25.47252375 14.04980469 30.80102539 C13.38980469 31.13102539 12.72980469 31.46102539 12.04980469 31.80102539 C8.04980469 26.05102539 8.04980469 26.05102539 8.04980469 23.80102539 C7.38980469 23.80102539 6.72980469 23.80102539 6.04980469 23.80102539 C4.32324219 21.83227539 4.32324219 21.83227539 2.42480469 19.30102539 C1.79316406 18.46571289 1.16152344 17.63040039 0.51074219 16.76977539 C0.02863281 16.12008789 -0.45347656 15.47040039 -0.95019531 14.80102539 C-1.94019531 15.79102539 -2.93019531 16.78102539 -3.95019531 17.80102539 C-3.62019531 16.15102539 -3.29019531 14.50102539 -2.95019531 12.80102539 C-2.29019531 12.80102539 -1.63019531 12.80102539 -0.95019531 12.80102539 C0.56934178 7.88520462 0.56934178 7.88520462 1.04980469 2.80102539 C0.05980469 2.80102539 -0.93019531 2.80102539 -1.95019531 2.80102539 C-3.59845643 5.7678954 -4.39290619 8.45729064 -4.95019531 11.80102539 C-6.93019531 12.46102539 -8.91019531 13.12102539 -10.95019531 13.80102539 C-9.5038213 10.87479648 -8.00596199 7.983156 -6.45019531 5.11352539 C-6.02738281 4.3259082 -5.60457031 3.53829102 -5.16894531 2.72680664 C-3.65290704 0.33127181 -2.84982789 -0.29076236 0 0 Z " fill="#3674D7" transform="translate(101.9501953125,215.198974609375)"/>
<path d="M0 0 C1.65322266 0.01740234 1.65322266 0.01740234 3.33984375 0.03515625 C4.99693359 0.04869141 4.99693359 0.04869141 6.6875 0.0625 C7.54214844 0.07410156 8.39679688 0.08570313 9.27734375 0.09765625 C10.11653773 2.36647712 10.94886099 4.63742652 11.77734375 6.91015625 C12.01582031 7.55275391 12.25429688 8.19535156 12.5 8.85742188 C13.54803121 11.74699364 14.27734375 13.99841686 14.27734375 17.09765625 C13.61734375 17.09765625 12.95734375 17.09765625 12.27734375 17.09765625 C11.61734375 14.12765625 10.95734375 11.15765625 10.27734375 8.09765625 C7.63734375 8.42765625 4.99734375 8.75765625 2.27734375 9.09765625 C2.82879646 14.33645703 3.70656468 19.07116322 5.27734375 24.09765625 C4.61734375 24.75765625 3.95734375 25.41765625 3.27734375 26.09765625 C3.10082275 25.52732666 2.92430176 24.95699707 2.74243164 24.36938477 C1.94479176 21.79862895 1.14238381 19.22938632 0.33984375 16.66015625 C0.06205078 15.76232422 -0.21574219 14.86449219 -0.50195312 13.93945312 C-0.76943359 13.08544922 -1.03691406 12.23144531 -1.3125 11.3515625 C-1.55863037 10.56080322 -1.80476074 9.77004395 -2.05834961 8.95532227 C-2.56951676 7.10822317 -2.56951676 7.10822317 -3.72265625 6.09765625 C-3.84765625 3.59765625 -3.84765625 3.59765625 -3.72265625 1.09765625 C-2.72265625 0.09765625 -2.72265625 0.09765625 0 0 Z " fill="#0E67F1" transform="translate(290.72265625,212.90234375)"/>
<path d="M0 0 C4.13318028 3.49024113 7.74454448 7.18998927 8.25 12.75 C8 15 8 15 7 16 C3.29273271 16.42265262 -0.29977181 16.50558673 -4 16 C-6 13.6875 -6 13.6875 -7 11 C-8.58245275 9.24850835 -8.58245275 9.24850835 -10 8 C-9.01 7.67 -8.02 7.34 -7 7 C-5.5 8.375 -5.5 8.375 -4 10 C-4 10.66 -4 11.32 -4 12 C-0.535 11.505 -0.535 11.505 3 11 C2.61135346 7.54863159 2.61135346 7.54863159 1 4 C-1.54307167 2.49491677 -4.13908292 1.69859603 -7 1 C-7 0.34 -7 -0.32 -7 -1 C-9.1462026 -0.85970581 -11.29196218 -0.71261836 -13.4375 -0.5625 C-14.63246094 -0.48128906 -15.82742187 -0.40007812 -17.05859375 -0.31640625 C-19.88570244 -0.32343886 -19.88570244 -0.32343886 -21 1 C-23.67058851 1.14115161 -26.32432238 1.04247107 -29 1 C-21.10564338 -5.48465008 -8.71483431 -4.5130392 0 0 Z " fill="#3876D9" transform="translate(209,216)"/>
<path d="M0 0 C0.98484375 0.10183594 1.9696875 0.20367187 2.984375 0.30859375 C3.73203125 0.39238281 4.4796875 0.47617188 5.25 0.5625 C5.58 1.5525 5.91 2.5425 6.25 3.5625 C5.92 4.2225 5.59 4.8825 5.25 5.5625 C6.9 5.5625 8.55 5.5625 10.25 5.5625 C9.92 6.2225 9.59 6.8825 9.25 7.5625 C7.93 7.5625 6.61 7.5625 5.25 7.5625 C5.600625 8.119375 5.95125 8.67625 6.3125 9.25 C7.25 11.5625 7.25 11.5625 6.25 16.5625 C-0.35 16.5625 -6.95 16.5625 -13.75 16.5625 C-13.75 14.5825 -13.75 12.6025 -13.75 10.5625 C-13.42 10.5625 -13.09 10.5625 -12.75 10.5625 C-12.75 12.2125 -12.75 13.8625 -12.75 15.5625 C-6.81 15.5625 -0.87 15.5625 5.25 15.5625 C3.00398684 9.77232267 3.00398684 9.77232267 0.0625 8.1875 C-3.63995006 7.36473332 -6.95908051 7.43399425 -10.75 7.5625 C-10.75 3.5625 -10.75 3.5625 -9.75 0.5625 C-6.49454896 -0.80389344 -3.44767963 -0.36939425 0 0 Z " fill="#1062E2" transform="translate(437.75,230.4375)"/>
<path d="M0 0 C1.32 0.33 2.64 0.66 4 1 C3.58661228 6.37404042 2.7895883 8.32524771 -1 12 C-1.67784992 14.33010909 -2.34416793 16.66359824 -3 19 C-5 21.9375 -5 21.9375 -7 24 C-7.66 24 -8.32 24 -9 24 C-11.67927341 19.98108988 -11.15601248 17.75838077 -11 13 C-10.15115234 12.67128906 -10.15115234 12.67128906 -9.28515625 12.3359375 C-7.03252685 11.36204148 -5.01783215 10.40091531 -3 9 C-2.01294797 5.99668927 -2.01294797 5.99668927 -2 3 C-1.34 2.01 -0.68 1.02 0 0 Z " fill="#166EF6" transform="translate(100,217)"/>
<path d="M0 0 C3.5625 0.3125 3.5625 0.3125 5.5 1.375 C7.19585287 4.46743758 6.99310657 6.86764741 6.5625 10.3125 C5 12.3125 5 12.3125 2.5625 13.3125 C-1.0625 13.1875 -1.0625 13.1875 -4.4375 12.3125 C-6.4375 9.3125 -6.4375 9.3125 -6.1875 5.75 C-5.19120735 1.18365869 -4.69283396 0.42662127 0 0 Z " fill="#3569C7" transform="translate(275.4375,211.6875)"/>
<path d="M0 0 C1.7074998 1.28062485 3.37373596 2.61767557 5 4 C5 4.66 5 5.32 5 6 C5.66 6 6.32 6 7 6 C8.625 7.25 8.625 7.25 10 9 C10 10.32 10 11.64 10 13 C10.66 13 11.32 13 12 13 C12 14.32 12 15.64 12 17 C12.99 17.33 13.98 17.66 15 18 C16.3442623 23.37704918 16.3442623 23.37704918 14.6875 26.375 C13 28 13 28 11 28 C10.89042969 27.25234375 10.78085938 26.5046875 10.66796875 25.734375 C10.50941406 24.74953125 10.35085937 23.7646875 10.1875 22.75 C10.03667969 21.77546875 9.88585937 20.8009375 9.73046875 19.796875 C8.95932301 16.84425282 7.96804131 15.29266668 6 13 C5.525625 12.34 5.05125 11.68 4.5625 11 C3.00860363 8.90664562 3.00860363 8.90664562 0.875 7 C-1.07015368 4.9251694 -1.60438599 3.7692981 -2 1 C-1.34 0.67 -0.68 0.34 0 0 Z " fill="#166EF1" transform="translate(105,225)"/>
<path d="M0 0 C3 1 3 1 5 4 C5.66 4.33 6.32 4.66 7 5 C7.40729228 7.32156597 7.74438677 9.6568787 8 12 C6.35 11.67 4.7 11.34 3 11 C2.67 11.66 2.34 12.32 2 13 C2.66 13 3.32 13 4 13 C4 13.66 4 14.32 4 15 C1.69 14.34 -0.62 13.68 -3 13 C-3 13.66 -3 14.32 -3 15 C-5 14 -5 14 -6 11 C-6.33 10.34 -6.66 9.68 -7 9 C-5 6 -5 6 -2 5 C-0.78130071 2.49552484 -0.78130071 2.49552484 0 0 Z " fill="#1270F6" transform="translate(133,268)"/>
<path d="M0 0 C0.66 0 1.32 0 2 0 C2.02689216 1.47906892 2.04634621 2.95827483 2.0625 4.4375 C2.07410156 5.26121094 2.08570313 6.08492187 2.09765625 6.93359375 C2 9 2 9 1 10 C-1.07262076 10.08767112 -3.14820294 10.10695873 -5.22265625 10.09765625 C-6.48271484 10.09443359 -7.74277344 10.09121094 -9.04101562 10.08789062 C-10.38151109 10.07953403 -11.72200588 10.07106907 -13.0625 10.0625 C-14.40689942 10.0574866 -15.7513006 10.05292342 -17.09570312 10.04882812 C-20.39717941 10.03699488 -23.69856803 10.02050971 -27 10 C-26.04045415 14.69914838 -26.04045415 14.69914838 -23.375 18.4375 C-19.86570564 19.26864866 -16.60331819 19.12011061 -13 19 C-13 20.32 -13 21.64 -13 23 C-23.53753027 23.41323648 -23.53753027 23.41323648 -27 21 C-28.85600646 16.52871172 -29.10094178 13.63512445 -28 9 C-18.62895894 8.11504503 -9.40228594 7.8829591 0 8 C0 5.36 0 2.72 0 0 Z " fill="#4D83D2" transform="translate(453,244)"/>
<path d="M0 0 C1.39852912 4.19558737 -0.22736864 6.04566851 -2 10 C-4.59579885 20.33093098 -3.78216465 31.46323361 1 41 C2.74254255 43.34329062 4.54162632 45.41750184 6.609375 47.4765625 C8 49 8 49 8 51 C8.66 51.33 9.32 51.66 10 52 C6.75728494 51.4409112 5.06942576 50.5867822 3 48 C3 47.34 3 46.68 3 46 C2.34 46 1.68 46 1 46 C1 45.34 1 44.68 1 44 C0.34 44 -0.32 44 -1 44 C-4.90232969 36.23715129 -6.47755287 29.67803906 -6.4375 21.0625 C-6.43492188 20.2583667 -6.43234375 19.4542334 -6.4296875 18.62573242 C-6.31549228 14.06410921 -5.71403657 10.28853326 -4 6 C-3.34 6 -2.68 6 -2 6 C-2 4.68 -2 3.36 -2 2 C-1.34 2 -0.68 2 0 2 C0 1.34 0 0.68 0 0 Z " fill="#3F72CE" transform="translate(69,223)"/>
<path d="M0 0 C0.66 0.33 1.32 0.66 2 1 C2.25 3.8125 2.25 3.8125 2 7 C-0.25113424 9.29925825 -1.63176317 9.95289405 -4.83984375 10.36328125 C-5.86207031 10.34652344 -6.88429688 10.32976562 -7.9375 10.3125 C-8.95714844 10.30863281 -9.97679688 10.30476563 -11.02734375 10.30078125 C-14.03509637 9.99644886 -16.26880782 9.26248479 -19 8 C-19 7.01 -19 6.02 -19 5 C-14.40767665 3.17144572 -11.02641732 2.87485538 -6.125 3.375 C-4.97257812 3.48585938 -3.82015625 3.59671875 -2.6328125 3.7109375 C-1.76398438 3.80632812 -0.89515625 3.90171875 0 4 C0 2.68 0 1.36 0 0 Z " fill="#2F72DB" transform="translate(110,263)"/>
<path d="M0 0 C0.99 0.66 1.98 1.32 3 2 C1.90627754 8.27925363 0.64637229 14.17798096 -2 20 C-2.99 20.33 -3.98 20.66 -5 21 C-5 20.34 -5 19.68 -5 19 C-4.34 19 -3.68 19 -3 19 C-3.33 17.35 -3.66 15.7 -4 14 C-5.32 14.33 -6.64 14.66 -8 15 C-8.93423645 11.98968256 -9.04449911 11.13349732 -8 8 C-7.34 8 -6.68 8 -6 8 C-5.67 7.01 -5.34 6.02 -5 5 C-3.5625 3.3125 -3.5625 3.3125 -2 2 C-1.34 2 -0.68 2 0 2 C0 1.34 0 0.68 0 0 Z " fill="#0E6AFA" transform="translate(329,234)"/>
<path d="M0 0 C4.56285324 3.61439498 7.89342649 7.00729257 11 12 C11.5775 12.5775 12.155 13.155 12.75 13.75 C14 15 14 15 14 17 C14.680625 17.2475 15.36125 17.495 16.0625 17.75 C19.57165146 19.24325594 22.7021119 21.08122874 26 23 C27.32646156 23.6802367 28.65608877 24.35492261 30 25 C27.55313713 25.8826583 26.29318267 26.08949787 23.7734375 25.3203125 C16.12775275 21.50992238 7.41908032 16.1946436 4 8 C3.34 8 2.68 8 2 8 C0.3125 5.6875 0.3125 5.6875 -1 3 C-0.67 2.01 -0.34 1.02 0 0 Z " fill="#3A7DDE" transform="translate(57,269)"/>
<path d="M0 0 C-0.08378906 0.94101563 -0.16757813 1.88203125 -0.25390625 2.8515625 C-0.35574219 4.09679687 -0.45757812 5.34203125 -0.5625 6.625 C-0.66691406 7.85476562 -0.77132812 9.08453125 -0.87890625 10.3515625 C-0.99210705 13.76219306 -0.57022081 16.65534349 0 20 C-0.33 20.99 -0.66 21.98 -1 23 C-4.875 21.25 -4.875 21.25 -6 19 C-6.17682621 16.52443304 -6.27730822 14.10250105 -6.3125 11.625 C-6.34150391 10.95210937 -6.37050781 10.27921875 -6.40039062 9.5859375 C-6.44493041 6.10498176 -6.24654598 4.32228897 -4.10546875 1.5234375 C-2 0 -2 0 0 0 Z " fill="#1470F7" transform="translate(89,240)"/>
<path d="M0 0 C-0.99 0.495 -0.99 0.495 -2 1 C-2 1.66 -2 2.32 -2 3 C-5.42296964 3.74010154 -8.50130105 4 -12 4 C-12 4.66 -12 5.32 -12 6 C-13.98372558 7.77118355 -15.44059081 8.88133745 -18.0625 9.4375 C-20.7442411 10.21607 -21.43381242 11.7528613 -23 14 C-23.99 14.66 -24.98 15.32 -26 16 C-26.33 16.66 -26.66 17.32 -27 18 C-28.32 17.67 -29.64 17.34 -31 17 C-24.61950794 8.62832933 -11.51887428 -4.04717204 0 0 Z " fill="#437FDC" transform="translate(91,195)"/>
<path d="M0 0 C0.66 0 1.32 0 2 0 C0.48270346 7.72666772 -1.90671806 15.00977714 -4.5 22.4375 C-4.90347656 23.62021484 -5.30695313 24.80292969 -5.72265625 26.02148438 C-6.11324219 27.14748047 -6.50382812 28.27347656 -6.90625 29.43359375 C-7.26009766 30.45509521 -7.61394531 31.47659668 -7.97851562 32.52905273 C-9 35 -9 35 -11 37 C-10.72474147 30.5314246 -9.54832288 25.32210908 -6.98828125 19.3828125 C-4.76622338 14.02528168 -3.70853653 8.82926933 -4 3 C-2.68 2.67 -1.36 2.34 0 2 C0 1.34 0 0.68 0 0 Z " fill="#3072D4" transform="translate(338,220)"/>
<path d="M0 0 C1.1446875 1.175625 1.1446875 1.175625 2.3125 2.375 C5.68629189 5.82252608 5.68629189 5.82252608 10.12109375 7.23046875 C10.88550781 7.21628906 11.64992188 7.20210938 12.4375 7.1875 C13.19933594 7.18105469 13.96117188 7.17460937 14.74609375 7.16796875 C16.93937857 7.00451771 18.88870807 6.60116513 21 6 C21.33 7.98 21.66 9.96 22 12 C21.67 11.34 21.34 10.68 21 10 C18.52076199 9.97314905 16.0418116 9.95323453 13.5625 9.9375 C12.85544922 9.92912109 12.14839844 9.92074219 11.41992188 9.91210938 C9.61306441 9.90346412 7.80612397 9.94779989 6 10 C5.67 10.33 5.34 10.66 5 11 C3.33382885 11.04063832 1.66611905 11.042721 0 11 C-1.125 3.375 -1.125 3.375 0 0 Z " fill="#2376EB" transform="translate(89,257)"/>
<path d="M0 0 C0.33 0.66 0.66 1.32 1 2 C0.67 2.66 0.34 3.32 0 4 C-0.66 4 -1.32 4 -2 4 C-4.17793133 9.44482832 -5.13291569 14.68840029 -3.1875 20.375 C-1.92454922 22.29911164 -1.92454922 22.29911164 1 24 C1.99 24.66 2.98 25.32 4 26 C5.38199747 26.57605248 6.77905218 27.11703521 8.1875 27.625 C8.90292969 27.88539063 9.61835938 28.14578125 10.35546875 28.4140625 C10.89816406 28.60742188 11.44085938 28.80078125 12 29 C12 29.66 12 30.32 12 31 C5.19900047 29.85138675 -0.08234854 28.32008614 -4.8125 22.9375 C-7.31708216 18.85107648 -7.61303153 14.66401012 -7 10 C-5.42548283 5.54926088 -3.97057182 2.64704788 0 0 Z " fill="#4D82D4" transform="translate(179,217)"/>
<path d="M0 0 C0.66 0.99 1.32 1.98 2 3 C1.7018576 4.34164079 1.35858516 5.67323492 1 7 C0.43232646 13.58501308 1.54675499 19.26590797 5 25 C7.0358454 26.31148185 7.0358454 26.31148185 9 27 C9 27.66 9 28.32 9 29 C9.99 29 10.98 29 12 29 C12 29.66 12 30.32 12 31 C13.65 31.33 15.3 31.66 17 32 C17 32.33 17 32.66 17 33 C12.62279231 33.65658115 10.29549165 32.82978232 6.8125 30.3125 C1.91858194 26.33211331 -0.46920708 22.12317169 -2 16 C-2.51431114 10.25860826 -1.85093245 5.43711408 0 0 Z " fill="#4C77CC" transform="translate(414,240)"/>
<path d="M0 0 C1.62490954 -0.02698189 3.24994633 -0.04638757 4.875 -0.0625 C5.77992188 -0.07410156 6.68484375 -0.08570313 7.6171875 -0.09765625 C10 0 10 0 12 1 C11.08685378 7.39202354 8.41831816 9.82795456 3.38671875 13.71484375 C0.68647203 15.16882276 -0.97916686 15.26198376 -4 15 C-4.33 14.34 -4.66 13.68 -5 13 C-3.02 13 -1.04 13 1 13 C1 12.34 1 11.68 1 11 C1.969375 10.38125 2.93875 9.7625 3.9375 9.125 C7.10540099 7.34963648 7.10540099 7.34963648 7.875 4.75 C7.91625 4.1725 7.9575 3.595 8 3 C6.9275 3.350625 5.855 3.70125 4.75 4.0625 C0.07692308 5.23076923 0.07692308 5.23076923 -3 4 C-2.34 4 -1.68 4 -1 4 C-0.67 2.68 -0.34 1.36 0 0 Z " fill="#4272CD" transform="translate(443,258)"/>
<path d="M0 0 C0.66 0.33 1.32 0.66 2 1 C2.16038076 10.94360691 -1.94952781 20.67756754 -8.734375 27.91796875 C-9.48203125 28.60503906 -10.2296875 29.29210937 -11 30 C-11.33 28.02 -11.66 26.04 -12 24 C-11.175 23.608125 -10.35 23.21625 -9.5 22.8125 C-8.675 22.214375 -7.85 21.61625 -7 21 C-6.58219121 18.37305578 -6.58219121 18.37305578 -7 16 C-5.68 16 -4.36 16 -3 16 C-2.86722656 15.01257813 -2.73445312 14.02515625 -2.59765625 13.0078125 C-2.42105469 11.72648437 -2.24445313 10.44515625 -2.0625 9.125 C-1.88847656 7.84882813 -1.71445313 6.57265625 -1.53515625 5.2578125 C-1 2 -1 2 0 0 Z " fill="#3D7ADA" transform="translate(152,250)"/>
<path d="M0 0 C1 2 1 2 0.0625 5.8125 C-1.83540001 13.79142655 -2.17860059 22.34246222 1 30 C3.00136244 31.42055068 3.00136244 31.42055068 5 32 C4.34 32.66 3.68 33.32 3 34 C-2.22801676 28.48938774 -4.46133468 23.15541816 -5.4375 15.625 C-4.86023677 10.84196178 -3.54314564 3.54314564 0 0 Z " fill="#5688DB" transform="translate(342,235)"/>
<path d="M0 0 C1.91182079 1.55162267 3.37972942 3.12656214 5 5 C4.01 5 3.02 5 2 5 C2 4.34 2 3.68 2 3 C-0.64 3 -3.28 3 -6 3 C-6 2.34 -6 1.68 -6 1 C-7.43534841 0.7773254 -8.87345525 0.57238094 -10.3125 0.375 C-11.11300781 0.25898438 -11.91351563 0.14296875 -12.73828125 0.0234375 C-15.28723215 -0.21533407 -15.28723215 -0.21533407 -18 2 C-19.32 2 -20.64 2 -22 2 C-22.33 2.66 -22.66 3.32 -23 4 C-25.5625 4.625 -25.5625 4.625 -28 5 C-20.55186879 -3.61190171 -10.1612474 -5.44200697 0 0 Z " fill="#457BCD" transform="translate(371,230)"/>
<path d="M0 0 C1.65322266 0.01740234 1.65322266 0.01740234 3.33984375 0.03515625 C4.99693359 0.04869141 4.99693359 0.04869141 6.6875 0.0625 C7.54214844 0.07410156 8.39679688 0.08570313 9.27734375 0.09765625 C10.11653773 2.36647712 10.94886099 4.63742652 11.77734375 6.91015625 C12.01582031 7.55275391 12.25429688 8.19535156 12.5 8.85742188 C13.54803121 11.74699364 14.27734375 13.99841686 14.27734375 17.09765625 C13.61734375 17.09765625 12.95734375 17.09765625 12.27734375 17.09765625 C11.60514024 15.16207026 10.93976298 13.22411253 10.27734375 11.28515625 C9.90609375 10.20621094 9.53484375 9.12726563 9.15234375 8.015625 C8.27734375 5.09765625 8.27734375 5.09765625 8.27734375 2.09765625 C5.30734375 2.09765625 2.33734375 2.09765625 -0.72265625 2.09765625 C-0.55765625 2.98453125 -0.39265625 3.87140625 -0.22265625 4.78515625 C0.20730132 7.63362517 0.3617541 10.22770427 0.27734375 13.09765625 C-2.62794392 10.19236858 -3.63137686 7.43642066 -3.91015625 3.34765625 C-3.63426519 0.03696352 -3.36509409 0.12069921 0 0 Z " fill="#4B78C5" transform="translate(290.72265625,212.90234375)"/>
<path d="M0 0 C-0.33 0.66 -0.66 1.32 -1 2 C-10.85916975 5.0271817 -22.21366534 7.2319285 -32 3 C-32 2.67 -32 2.34 -32 2 C-31.01604248 1.96241577 -31.01604248 1.96241577 -30.01220703 1.92407227 C-27.04959817 1.8082674 -24.08731969 1.68547114 -21.125 1.5625 C-20.09246094 1.52318359 -19.05992188 1.48386719 -17.99609375 1.44335938 C-17.00996094 1.40146484 -16.02382812 1.35957031 -15.0078125 1.31640625 C-14.09660645 1.27974854 -13.18540039 1.24309082 -12.24658203 1.20532227 C-7.92982219 0.81079988 -4.58923528 -0.07401992 0 0 Z " fill="#3570D4" transform="translate(122,293)"/>
<path d="M0 0 C1.32 0.66 2.64 1.32 4 2 C4 4 4 6 4 8 C4.66 8 5.32 8 6 8 C5.67 9.65 5.34 11.3 5 13 C2.69 12.67 0.38 12.34 -2 12 C-2.66 10.35 -3.32 8.7 -4 7 C-3.34 6.67 -2.68 6.34 -2 6 C-2.33 4.68 -2.66 3.36 -3 2 C-2.01 2 -1.02 2 0 2 C0 1.34 0 0.68 0 0 Z " fill="#0B6BF9" transform="translate(209,245)"/>
<path d="M0 0 C1.2065625 0.0309375 1.2065625 0.0309375 2.4375 0.0625 C2.4375 0.7225 2.4375 1.3825 2.4375 2.0625 C3.0975 2.0625 3.7575 2.0625 4.4375 2.0625 C4.7675 3.0525 5.0975 4.0425 5.4375 5.0625 C4.51171875 6.88671875 4.51171875 6.88671875 3.125 8.75 C2.67511719 9.37261719 2.22523437 9.99523437 1.76171875 10.63671875 C1.32472656 11.10722656 0.88773437 11.57773438 0.4375 12.0625 C-0.2225 12.0625 -0.8825 12.0625 -1.5625 12.0625 C-4.25711986 8.02057022 -3.79450889 5.8573504 -3.5625 1.0625 C-2.5625 0.0625 -2.5625 0.0625 0 0 Z " fill="#3579E2" transform="translate(92.5625,228.9375)"/>
<path d="M0 0 C0.33 0 0.66 0 1 0 C1.01417969 1.01320312 1.02835937 2.02640625 1.04296875 3.0703125 C0.94046242 11.50509772 0.94046242 11.50509772 4.5625 18.75 C5.366875 19.4925 6.17125 20.235 7 21 C7 21.99 7 22.98 7 24 C7.66 24 8.32 24 9 24 C8.67 24.66 8.34 25.32 8 26 C3.04435345 22.39589342 -0.18644011 18.95589555 -2 13 C-2.59726447 7.96804686 -2.85868643 4.28802965 0 0 Z " fill="#4B7FD5" transform="translate(82,244)"/>
<path d="M0 0 C1.2065625 0.0309375 1.2065625 0.0309375 2.4375 0.0625 C2.685 0.84625 2.9325 1.63 3.1875 2.4375 C4.59139099 5.38567108 5.44425737 5.9649777 8.4375 7.0625 C6.75 8.625 6.75 8.625 4.4375 10.0625 C1.58406236 9.92330792 -0.02712886 9.43172147 -2.375 7.8125 C-3.97225379 5.4586523 -3.85563806 3.84731156 -3.5625 1.0625 C-2.5625 0.0625 -2.5625 0.0625 0 0 Z " fill="#0C6AF9" transform="translate(177.5625,256.9375)"/>
<path d="M0 0 C1.51400391 0.01740234 1.51400391 0.01740234 3.05859375 0.03515625 C4.07050781 0.04417969 5.08242187 0.05320313 6.125 0.0625 C7.29869141 0.07990234 7.29869141 0.07990234 8.49609375 0.09765625 C8.82609375 2.40765625 9.15609375 4.71765625 9.49609375 7.09765625 C9.12484375 6.60265625 8.75359375 6.10765625 8.37109375 5.59765625 C5.74914982 3.50010111 3.75766903 3.8802179 0.49609375 4.09765625 C0.49609375 6.40765625 0.49609375 8.71765625 0.49609375 11.09765625 C1.48609375 11.42765625 2.47609375 11.75765625 3.49609375 12.09765625 C2.83609375 12.75765625 2.17609375 13.41765625 1.49609375 14.09765625 C-2.62611642 9.84247155 -3.21751616 6.82545815 -3.50390625 1.09765625 C-2.50390625 0.09765625 -2.50390625 0.09765625 0 0 Z " fill="#3B70D0" transform="translate(174.50390625,253.90234375)"/>
<path d="M0 0 C1.32 0.33 2.64 0.66 4 1 C3.1492254 6.06101811 -0.03805989 8.07738541 -4 11 C-10.12269939 15 -10.12269939 15 -13 15 C-13.33 13.68 -13.66 12.36 -14 11 C-10.25 9.875 -10.25 9.875 -8 11 C-8 10.34 -8 9.68 -8 9 C-7.01 9 -6.02 9 -5 9 C-4.67 8.01 -4.34 7.02 -4 6 C-2.35 5.67 -0.7 5.34 1 5 C1 4.34 1 3.68 1 3 C0.34 3 -0.32 3 -1 3 C-0.67 2.01 -0.34 1.02 0 0 Z " fill="#4885D9" transform="translate(136,278)"/>
<path d="M0 0 C0.66 0 1.32 0 2 0 C2.33 1.32 2.66 2.64 3 4 C-3.21668596 8.28260588 -9.55564128 9.8321948 -17.12109375 8.67578125 C-20.252218 7.83408118 -23.17460041 6.58222377 -26 5 C-24 4 -24 4 -22.375 4.4296875 C-18.93456972 5.25584346 -15.5163752 5.14411073 -12 5.125 C-10.93265625 5.13080078 -10.93265625 5.13080078 -9.84375 5.13671875 C-6.42461983 5.13033978 -3.26706994 5.07200732 0 4 C0 2.68 0 1.36 0 0 Z " fill="#3471D0" transform="translate(372,265)"/>
<path d="M0 0 C0.33 0 0.66 0 1 0 C1.2236337 1.41433206 1.42826476 2.83167618 1.625 4.25 C1.74101563 5.03890625 1.85703125 5.8278125 1.9765625 6.640625 C2.00341398 9.34367439 1.2042388 10.63068465 0 13 C0.33 13.99 0.66 14.98 1 16 C1.66 16 2.32 16 3 16 C3 16.99 3 17.98 3 19 C2.34 19 1.68 19 1 19 C1 19.66 1 20.32 1 21 C-0.65 21.66 -2.3 22.32 -4 23 C-4 13 -4 13 -2.5625 11.375 C-0.23263262 7.83360159 -0.25775544 4.15963945 0 0 Z " fill="#3075E0" transform="translate(115,248)"/>
<path d="M0 0 C2.31 0 4.62 0 7 0 C7.6875 2.3125 7.6875 2.3125 8 5 C6.625 6.5625 6.625 6.5625 5 8 C4.64830932 9.32860925 4.31229724 10.66158328 4 12 C3.01 12.495 3.01 12.495 2 13 C-1.62870159 4.738041 -1.62870159 4.738041 0 0 Z " fill="#0C6BFA" transform="translate(293,221)"/>
<path d="M0 0 C3.64620205 5.46930307 4.79106656 11.49167968 4 18 C2.85762812 22.81204593 1.77182117 26.65079185 -2 30 C-2.66 28.68 -3.32 27.36 -4 26 C-3.01 26 -2.02 26 -1 26 C1.77447111 18.81901596 1.0366074 11.69482834 -0.60546875 4.2578125 C-1 2 -1 2 0 0 Z " fill="#3C6FCF" transform="translate(378,237)"/>
<path d="M0 0 C0.70125 0.2475 1.4025 0.495 2.125 0.75 C1.795 1.74 1.465 2.73 1.125 3.75 C3.105 3.42 5.085 3.09 7.125 2.75 C7.125 5.75 7.125 5.75 5.125 8.75 C4.135 8.75 3.145 8.75 2.125 8.75 C2.125 8.09 2.125 7.43 2.125 6.75 C1.465 6.75 0.805 6.75 0.125 6.75 C0.125 6.09 0.125 5.43 0.125 4.75 C-0.803125 4.95625 -1.73125 5.1625 -2.6875 5.375 C-5.875 5.75 -5.875 5.75 -8.875 3.75 C-3.58269231 -0.31153846 -3.58269231 -0.31153846 0 0 Z " fill="#0C6BF9" transform="translate(363.875,229.25)"/>
<path d="M0 0 C1.09538086 -0.01836914 1.09538086 -0.01836914 2.21289062 -0.03710938 C7.39504359 -0.05087949 11.82988301 0.75986455 16.8125 2.1875 C16.8125 2.5175 16.8125 2.8475 16.8125 3.1875 C12.52088953 3.24533842 8.22937855 3.2810412 3.9375 3.3125 C2.71417969 3.32925781 1.49085937 3.34601563 0.23046875 3.36328125 C-1.51943359 3.37294922 -1.51943359 3.37294922 -3.3046875 3.3828125 C-4.38347168 3.39328613 -5.46225586 3.40375977 -6.57373047 3.41455078 C-9.1875 3.1875 -9.1875 3.1875 -11.1875 1.1875 C-7.43158251 -0.0644725 -3.91217016 0.00336386 0 0 Z " fill="#3875D2" transform="translate(101.1875,191.8125)"/>
<path d="M0 0 C0.33 0 0.66 0 1 0 C0.85962479 1.81293089 0.71255111 3.6253443 0.5625 5.4375 C0.48128906 6.44683594 0.40007812 7.45617187 0.31640625 8.49609375 C0 11 0 11 -1 12 C-1.3931648 13.67884238 -1.74085452 15.36850045 -2.0625 17.0625 C-2.32740234 18.44115234 -2.32740234 18.44115234 -2.59765625 19.84765625 C-2.73042969 20.55792969 -2.86320312 21.26820313 -3 22 C-3.66 22 -4.32 22 -5 22 C-5.33 23.98 -5.66 25.96 -6 28 C-6.99 28.33 -7.98 28.66 -9 29 C-6.52891267 19.1590031 -3.26306008 9.59909908 0 0 Z " fill="#4878D5" transform="translate(326,220)"/>
<path d="M0 0 C2.05078125 0.03255208 4.1015625 0.06510417 6.15234375 0.09765625 C6.35320818 3.81364816 6.30428745 4.8697407 4.15234375 8.09765625 C1.65234375 8.41015625 1.65234375 8.41015625 -0.84765625 8.09765625 C-2.84765625 6.09765625 -2.84765625 6.09765625 -3.03515625 3.53515625 C-2.77450145 0.14664384 -2.77450145 0.14664384 0 0 Z " fill="#0F68F3" transform="translate(273.84765625,214.90234375)"/>
<path d="M0 0 C0.66 0 1.32 0 2 0 C1.4445349 3.89511329 0.35322214 6.31875263 -1.9375 9.5 C-3.67007661 11.91794476 -4.96970375 13.91795256 -6.00390625 16.71875 C-6.33261719 17.4715625 -6.66132813 18.224375 -7 19 C-7.99 19.33 -8.98 19.66 -10 20 C-10.33 20.66 -10.66 21.32 -11 22 C-12.65 22 -14.3 22 -16 22 C-14.948125 20.9790625 -14.948125 20.9790625 -13.875 19.9375 C-12.91165193 18.96326664 -11.95371044 17.98366993 -11 17 C-10.50757812 16.49210937 -10.01515625 15.98421875 -9.5078125 15.4609375 C-5.24961978 10.80560764 -2.60155271 5.7211137 0 0 Z " fill="#3B77D7" transform="translate(138,255)"/>
<path d="M0 0 C0.556875 0.28875 1.11375 0.5775 1.6875 0.875 C4.08494645 2.0413253 6.51596939 3.0339881 9 4 C9 4.33 9 4.66 9 5 C12.3 5 15.6 5 19 5 C19 4.34 19 3.68 19 3 C21.64 2.01 24.28 1.02 27 0 C27 1.98 27 3.96 27 6 C26.67 5.01 26.34 4.02 26 3 C24.7934375 3.9590625 24.7934375 3.9590625 23.5625 4.9375 C19.61550202 7.55950102 15.68627857 8.1005999 11 8 C8.06313726 7.25243494 5.69100466 6.34550233 3 5 C3 4.34 3 3.68 3 3 C2.34 3 1.68 3 1 3 C0.67 2.01 0.34 1.02 0 0 Z " fill="#5380D5" transform="translate(224,266)"/>
<path d="M0 0 C0.33 0 0.66 0 1 0 C1.33 5.61 1.66 11.22 2 17 C-1.63 17 -5.26 17 -9 17 C-9.33 15.02 -9.66 13.04 -10 11 C-10.99 11.495 -10.99 11.495 -12 12 C-11.34 10.68 -10.68 9.36 -10 8 C-9.01 8 -8.02 8 -7 8 C-6.34 9.65 -5.68 11.3 -5 13 C-5.33 13.33 -5.66 13.66 -6 14 C-3.03 14.495 -3.03 14.495 0 15 C0 10.05 0 5.1 0 0 Z " fill="#2A68D4" transform="translate(260,256)"/>
<path d="M0 0 C4.49407656 2.24703828 6.83790609 4.43557953 9 9 C9.78530331 15.51801747 10.02282041 19.63623946 6 25 C6.33 20.71 6.66 16.42 7 12 C6.34 12 5.68 12 5 12 C4.4465236 9.92446352 4 8.15634036 4 6 C3.34 5.34 2.68 4.68 2 4 C1.34 3.34 0.68 2.68 0 2 C0 1.34 0 0.68 0 0 Z " fill="#3A70CC" transform="translate(208,241)"/>
<path d="M0 0 C0.99 0.495 0.99 0.495 2 1 C2.33 1.99 2.66 2.98 3 4 C3.66 4.66 4.32 5.32 5 6 C4.67 6.99 4.34 7.98 4 9 C10.93 9.495 10.93 9.495 18 10 C18 8.02 18 6.04 18 4 C18.66 4 19.32 4 20 4 C20.33 2.68 20.66 1.36 21 0 C21.6875 1.5625 21.6875 1.5625 22 4 C21.01 6.31 20.02 8.62 19 11 C13.72 11 8.44 11 3 11 C0 3.375 0 3.375 0 0 Z " fill="#4C78C8" transform="translate(303,262)"/>
<path d="M0 0 C0.33 0 0.66 0 1 0 C1.2475 1.11375 1.495 2.2275 1.75 3.375 C2.63920966 6.91840594 2.63920966 6.91840594 4.625 8.4375 C8.13429436 9.26864866 11.39668181 9.12011061 15 9 C15 10.32 15 11.64 15 13 C4.46246973 13.41323648 4.46246973 13.41323648 1 11 C-0.58927005 7.09906441 -1.60886615 4.02216538 0 0 Z " fill="#3674DB" transform="translate(425,254)"/>
<path d="M0 0 C4.94496928 4.12080773 7.47975616 8.72899414 9 15 C9.11520186 18.44165542 8.90895721 21.67142432 8 25 C7.34 25.66 6.68 26.32 6 27 C6.02320312 26.20335937 6.04640625 25.40671875 6.0703125 24.5859375 C6.31458303 16.5756422 6.31458303 16.5756422 4 9 C3.34 8.67 2.68 8.34 2 8 C2 6.68 2 5.36 2 4 C1.34 4 0.68 4 0 4 C0 2.68 0 1.36 0 0 Z " fill="#5B85CB" transform="translate(115,234)"/>
<path d="M0 0 C0.33 0.66 0.66 1.32 1 2 C3.31 2 5.62 2 8 2 C8 2.33 8 2.66 8 3 C7.38511719 3.01417969 6.77023437 3.02835938 6.13671875 3.04296875 C4.92435547 3.11451172 4.92435547 3.11451172 3.6875 3.1875 C2.48673828 3.23970703 2.48673828 3.23970703 1.26171875 3.29296875 C-1.18080176 3.83266542 -1.18080176 3.83266542 -2.75 6.09375 C-4.25898035 9.60212931 -4.50955028 12.50437603 -4.6875 16.3125 C-4.75324219 17.56675781 -4.81898438 18.82101563 -4.88671875 20.11328125 C-4.94279297 21.54220703 -4.94279297 21.54220703 -5 23 C-7 21 -7 21 -7.265625 18.6796875 C-7.23292101 12.8093215 -7.10757121 7.51982937 -5 2 C-2.375 0.5 -2.375 0.5 0 0 Z " fill="#4175CF" transform="translate(356,235)"/>
<path d="M0 0 C4.71346154 1.48846154 4.71346154 1.48846154 6.1640625 4.078125 C6.43992187 4.71234375 6.71578125 5.3465625 7 6 C8.93742341 6.02703381 10.87495479 6.04641125 12.8125 6.0625 C14.43091797 6.07990234 14.43091797 6.07990234 16.08203125 6.09765625 C19.06512169 6.13624766 19.06512169 6.13624766 22 5 C21.67 5.99 21.34 6.98 21 8 C14.14417985 9.00262982 9.33818362 9.16909181 3 6 C3 5.34 3 4.68 3 4 C2.34 4 1.68 4 1 4 C0.67 2.68 0.34 1.36 0 0 Z " fill="#366ED2" transform="translate(390,265)"/>
<path d="M0 0 C3.96 0 7.92 0 12 0 C12.33 1.32 12.66 2.64 13 4 C12.34 4.66 11.68 5.32 11 6 C10.67 5.34 10.34 4.68 10 4 C8.72125 3.938125 7.4425 3.87625 6.125 3.8125 C5.40570313 3.77769531 4.68640625 3.74289063 3.9453125 3.70703125 C3.30335938 3.80371094 2.66140625 3.90039062 2 4 C1.01 5.485 1.01 5.485 0 7 C-0.66 7 -1.32 7 -2 7 C-1.34 4.69 -0.68 2.38 0 0 Z " fill="#4376CC" transform="translate(329,213)"/>
<path d="M0 0 C1.40225285 2.72455269 2.60042966 5.47386799 3.75 8.3125 C5.52986565 12.39810071 7.76209753 15.37962192 10.828125 18.58984375 C12 20 12 20 12 22 C12.66 22.33 13.32 22.66 14 23 C10.75728494 22.4409112 9.06942576 21.5867822 7 19 C7 18.34 7 17.68 7 17 C6.34 17 5.68 17 5 17 C5 16.34 5 15.68 5 15 C4.34 15 3.68 15 3 15 C-1.77676538 5.77448747 -1.77676538 5.77448747 0 0 Z " fill="#457DD0" transform="translate(65,252)"/>
<path d="M0 0 C1.11375 0.61875 2.2275 1.2375 3.375 1.875 C10.74521563 5.2218612 19.0336155 5.34687678 27 6 C27 6.33 27 6.66 27 7 C25.77023438 7.09087891 25.77023438 7.09087891 24.515625 7.18359375 C22.89914063 7.30927734 22.89914063 7.30927734 21.25 7.4375 C20.18265625 7.51871094 19.1153125 7.59992188 18.015625 7.68359375 C15.09723308 7.90856729 15.09723308 7.90856729 12.7265625 8.6171875 C12.15679687 8.74351562 11.58703125 8.86984375 11 9 C9.63461347 8.04422943 8.30518475 7.03647024 7 6 C5.4221875 5.5359375 5.4221875 5.5359375 3.8125 5.0625 C2.884375 4.711875 1.95625 4.36125 1 4 C0.32421875 1.93359375 0.32421875 1.93359375 0 0 Z " fill="#598ED8" transform="translate(81,276)"/>
<path d="M0 0 C-0.34069235 3.15140423 -0.58076841 4.60781561 -2.9375 6.8125 C-5 8 -5 8 -7 8 C-9 5 -9 5 -9 2 C-5.5647952 -0.29013653 -4.014669 -0.17842973 0 0 Z " fill="#0B6AF9" transform="translate(451,261)"/>
<path d="M0 0 C2 0.8125 2 0.8125 3.25 2.875 C3.4975 3.514375 3.745 4.15375 4 4.8125 C3.01 5.3075 3.01 5.3075 2 5.8125 C1.67 4.8225 1.34 3.8325 1 2.8125 C0.01 2.8125 -0.98 2.8125 -2 2.8125 C-3.64826111 5.77937001 -4.44271087 8.46876525 -5 11.8125 C-6.98 12.4725 -8.96 13.1325 -11 13.8125 C-9.55362598 10.88627109 -8.05576668 7.99463061 -6.5 5.125 C-6.0771875 4.33738281 -5.654375 3.54976562 -5.21875 2.73828125 C-3.68539588 0.31538515 -2.87711027 -0.26972909 0 0 Z " fill="#4B80D3" transform="translate(102,215.1875)"/>
<path d="M0 0 C0 0.66 0 1.32 0 2 C1.32 1.67 2.64 1.34 4 1 C4 2.32 4 3.64 4 5 C3.67 5.33 3.34 5.66 3 6 C1.00390625 5.94921875 1.00390625 5.94921875 -1.4375 5.6875 C-2.24058594 5.60886719 -3.04367187 5.53023438 -3.87109375 5.44921875 C-6 5 -6 5 -8 3 C-2.25 0 -2.25 0 0 0 Z " fill="#0E66EE" transform="translate(406,266)"/>
<path d="M0 0 C0.33 0 0.66 0 1 0 C1.01981934 0.94842773 1.03963867 1.89685547 1.06005859 2.87402344 C1.13825761 6.40032364 1.22495366 9.92620361 1.31738281 13.45214844 C1.35561266 14.97680658 1.390476 16.50155307 1.421875 18.02636719 C1.46765662 20.22102381 1.52562766 22.4150754 1.5859375 24.609375 C1.60326431 25.62834869 1.60326431 25.62834869 1.62094116 26.66790771 C1.73234916 30.2583736 2.05958376 32.93618488 4 36 C3.01 36.495 3.01 36.495 2 37 C1.01 36.34 0.02 35.68 -1 35 C-1.19548119 32.29702652 -1.20734463 29.83984473 -1.07421875 27.1484375 C-1.04777786 26.37440582 -1.02133698 25.60037415 -0.99409485 24.80288696 C-0.90619217 22.32615194 -0.79709593 19.85086085 -0.6875 17.375 C-0.62425548 15.69796872 -0.56238894 14.02088485 -0.50195312 12.34375 C-0.35062967 8.22838572 -0.18029195 4.11419288 0 0 Z " fill="#1464EB" transform="translate(224,230)"/>
<path d="M0 0 C0.66 0 1.32 0 2 0 C3.25664978 2.90600261 4 4.79604584 4 8 C4.99 8.33 5.98 8.66 7 9 C7.38885039 10.78871178 7.76069196 12.58112874 8.125 14.375 C8.33382813 15.37273437 8.54265625 16.37046875 8.7578125 17.3984375 C8.83773438 18.25695312 8.91765625 19.11546875 9 20 C8.34 20.66 7.68 21.32 7 22 C5.82828244 18.71010914 4.66348912 15.41780898 3.5 12.125 C3.16613281 11.18785156 2.83226562 10.25070313 2.48828125 9.28515625 C2.17246094 8.38925781 1.85664063 7.49335938 1.53125 6.5703125 C1.23798828 5.74289551 0.94472656 4.91547852 0.64257812 4.06298828 C0 2 0 2 0 0 Z " fill="#4076D0" transform="translate(295,240)"/>
<path d="M0 0 C1.22589844 -0.00515625 2.45179688 -0.0103125 3.71484375 -0.015625 C6.79991052 0.22916443 8.48596294 0.62271344 11.0625 2.25 C3.99436891 3.69987304 -2.86936891 3.69987304 -9.9375 2.25 C-6.26994001 -0.19503999 -4.36271863 -0.01831152 0 0 Z " fill="#467DDB" transform="translate(193.9375,270.75)"/>
<path d="M0 0 C0.33 0.66 0.66 1.32 1 2 C0.67 2.66 0.34 3.32 0 4 C-0.66 4 -1.32 4 -2 4 C-4.27141454 9.39460953 -4.20413361 14.26157749 -4 20 C-4.66 20 -5.32 20 -6 20 C-7.61491293 16.77017415 -7.45300335 13.50159348 -7 10 C-5.42828095 5.54938961 -3.96926206 2.64617471 0 0 Z " fill="#4375CC" transform="translate(179,217)"/>
<path d="M0 0 C2.31 0 4.62 0 7 0 C7 0.99 7 1.98 7 3 C5.515 3.07347656 5.515 3.07347656 4 3.1484375 C-4.46672918 3.52596988 -4.46672918 3.52596988 -12.75 5.1875 C-13.8225 5.455625 -14.895 5.72375 -16 6 C-16.99 5.34 -17.98 4.68 -19 4 C-14.64409432 2.37150031 -10.76065388 1.65881554 -6.125 1.375 C-4.97257812 1.30023438 -3.82015625 1.22546875 -2.6328125 1.1484375 C-1.76398438 1.09945312 -0.89515625 1.05046875 0 1 C0 0.67 0 0.34 0 0 Z " fill="#518CDC" transform="translate(102,205)"/>
<path d="M0 0 C1.65 0 3.3 0 5 0 C4.67 0.99 4.34 1.98 4 3 C5.65 3 7.3 3 9 3 C6 5 6 5 4 5 C3.34 7.31 2.68 9.62 2 12 C1.67 12 1.34 12 1 12 C-1.27678571 3.96428571 -1.27678571 3.96428571 0 0 Z " fill="#2D79E9" transform="translate(424,234)"/>
<path d="M0 0 C0.99 0 1.98 0 3 0 C3 0.66 3 1.32 3 2 C-2.41176471 6 -2.41176471 6 -5 6 C-5 6.66 -5 7.32 -5 8 C-5.66 8 -6.32 8 -7 8 C-7.33 8.99 -7.66 9.98 -8 11 C-8.66 11 -9.32 11 -10 11 C-10 9.02 -10 7.04 -10 5 C-9.01 5 -8.02 5 -7 5 C-7 4.34 -7 3.68 -7 3 C-3.535 2.505 -3.535 2.505 0 2 C0 1.34 0 0.68 0 0 Z " fill="#4785D7" transform="translate(81,211)"/>
<path d="M0 0 C0.33 0 0.66 0 1 0 C1.36644578 1.55966592 1.71760862 3.12292651 2.0625 4.6875 C2.25972656 5.55761719 2.45695312 6.42773438 2.66015625 7.32421875 C3.02032279 10.16001276 2.70909969 12.24789982 2 15 C0.0625 14.3125 0.0625 14.3125 -2 13 C-2.75 10.375 -2.75 10.375 -3 8 C-2.01 8 -1.02 8 0 8 C0 5.36 0 2.72 0 0 Z " fill="#156BEB" transform="translate(86,248)"/>
<path d="M0 0 C3.4375 1.25 3.4375 1.25 7 3 C7.9375 5.1875 7.9375 5.1875 8 7 C7.2575 7.144375 6.515 7.28875 5.75 7.4375 C3.47972261 7.90187492 1.24240521 8.41863569 -1 9 C-1.33 8.34 -1.66 7.68 -2 7 C-0.68 6.67 0.64 6.34 2 6 C2 5.01 2 4.02 2 3 C1.01 2.67 0.02 2.34 -1 2 C-0.67 1.34 -0.34 0.68 0 0 Z " fill="#1B6FEA" transform="translate(74,273)"/>
<path d="M0 0 C-0.33 1.65 -0.66 3.3 -1 5 C-0.34 5.33 0.32 5.66 1 6 C-1.64 5.67 -4.28 5.34 -7 5 C-7 4.34 -7 3.68 -7 3 C-7.66 3 -8.32 3 -9 3 C-9 2.34 -9 1.68 -9 1 C-2.25 -1.125 -2.25 -1.125 0 0 Z " fill="#2871E2" transform="translate(186,266)"/>
<path d="M0 0 C0.33 0 0.66 0 1 0 C1.33 3.96 1.66 7.92 2 12 C-0.31 12 -2.62 12 -5 12 C-4.67 14.31 -4.34 16.62 -4 19 C-4.99 19 -5.98 19 -7 19 C-7.125 15.625 -7.125 15.625 -7 12 C-6.34 11.34 -5.68 10.68 -5 10 C-3.35 10 -1.7 10 0 10 C0 6.7 0 3.4 0 0 Z " fill="#5886C9" transform="translate(389,218)"/>
<path d="M0 0 C3.63 0.66 7.26 1.32 11 2 C11.33 3.32 11.66 4.64 12 6 C10.35 6 8.7 6 7 6 C7 5.34 7 4.68 7 4 C4.36 4.33 1.72 4.66 -1 5 C-0.67 3.35 -0.34 1.7 0 0 Z " fill="#2A72E2" transform="translate(399,262)"/>
<path d="M0 0 C1.98 0 3.96 0 6 0 C6.05380578 2.79192205 6.09357669 5.5828141 6.125 8.375 C6.15013672 9.56609375 6.15013672 9.56609375 6.17578125 10.78125 C6.19335473 12.85492015 6.10335168 14.92883241 6 17 C5.34 17.66 4.68 18.32 4 19 C4.05220703 18.03900391 4.05220703 18.03900391 4.10546875 17.05859375 C4.29052795 11.14551176 3.73409099 7.24945469 1 2 C0.67 1.34 0.34 0.68 0 0 Z " fill="#4177C8" transform="translate(364,238)"/>
<path d="M0 0 C2.475 0.495 2.475 0.495 5 1 C4.83628906 1.84820312 4.67257812 2.69640625 4.50390625 3.5703125 C3.99051555 7.0645531 3.90149261 10.34627574 3.9375 13.875 C3.94652344 15.02742187 3.95554687 16.17984375 3.96484375 17.3671875 C3.97644531 18.23601562 3.98804688 19.10484375 4 20 C3.01 19.67 2.02 19.34 1 19 C1.33 13.39 1.66 7.78 2 2 C1.34 2 0.68 2 0 2 C0 1.34 0 0.68 0 0 Z " fill="#1163EE" transform="translate(346,238)"/>
<path d="M0 0 C4.31505111 1.56910949 8.04350501 3.69803928 12 6 C13.32646156 6.6802367 14.65608877 7.35492261 16 8 C13.36059742 9.00051772 12.20723697 9.07069298 9.4921875 8.14453125 C8.19667969 7.48517578 8.19667969 7.48517578 6.875 6.8125 C6.00617188 6.38582031 5.13734375 5.95914062 4.2421875 5.51953125 C1.8144569 3.87425737 1.0306899 2.70411339 0 0 Z " fill="#4379D4" transform="translate(71,286)"/>
<path d="M0 0 C0.66 0.99 1.32 1.98 2 3 C1.67 3.99 1.34 4.98 1 6 C1 5.34 1 4.68 1 4 C0.08476563 4.02320313 -0.83046875 4.04640625 -1.7734375 4.0703125 C-3.55621094 4.09738281 -3.55621094 4.09738281 -5.375 4.125 C-7.15003906 4.15980469 -7.15003906 4.15980469 -8.9609375 4.1953125 C-12 4 -12 4 -14 2 C-13.24074219 1.93941406 -12.48148437 1.87882812 -11.69921875 1.81640625 C-10.70535156 1.73261719 -9.71148437 1.64882813 -8.6875 1.5625 C-7.70136719 1.48128906 -6.71523437 1.40007812 -5.69921875 1.31640625 C-2.90624401 1.08187441 -2.90624401 1.08187441 0 0 Z " fill="#3876D2" transform="translate(109,263)"/>
<path d="M0 0 C0.99 0 1.98 0 3 0 C1.71291613 5.54436129 0.08135307 10.70201036 -2 16 C-2.33 16 -2.66 16 -3 16 C-2.57910004 10.39538469 -2.08386889 5.27913453 0 0 Z " fill="#4374CE" transform="translate(330,241)"/>
<path d="M0 0 C0.66 0.33 1.32 0.66 2 1 C1.91266424 2.60517097 1.80447776 4.20921662 1.6875 5.8125 C1.62949219 6.70582031 1.57148438 7.59914063 1.51171875 8.51953125 C0.93686419 11.30604 0.1793144 12.24135754 -2 14 C-2.1799928 8.78020872 -1.97094808 4.92737019 0 0 Z " fill="#3773D5" transform="translate(152,250)"/>
<path d="M0 0 C0.66 0 1.32 0 2 0 C2 0.66 2 1.32 2 2 C3.32 2.66 4.64 3.32 6 4 C5.34 5.98 4.68 7.96 4 10 C3.34 10 2.68 10 2 10 C-0.4294516 6.3558226 -0.16179575 4.28758728 0 0 Z " fill="#1A6BE7" transform="translate(89,231)"/>
<path d="M0 0 C2 2 2 2 2.8125 4.0625 C3.87359896 6.28389075 3.87359896 6.28389075 6.625 6.75 C7.40875 6.8325 8.1925 6.915 9 7 C9.33 6.01 9.66 5.02 10 4 C10.99 4.66 11.98 5.32 13 6 C11.4375 7.5625 11.4375 7.5625 9 9 C5.375 8.875 5.375 8.875 2 8 C-0.1519437 4.77208445 -0.20086443 3.71599191 0 0 Z " fill="#517CCC" transform="translate(269,216)"/>
<path d="M0 0 C1.33804688 0.04060547 1.33804688 0.04060547 2.703125 0.08203125 C3.37859375 0.11683594 4.0540625 0.15164063 4.75 0.1875 C3.75 2.1875 3.75 2.1875 0.5625 3.375 C-3.21076983 4.17913947 -5.54472477 4.09122567 -9.25 3.1875 C-6.10408067 0.38704377 -4.182936 -0.16511589 0 0 Z " fill="#1A70F6" transform="translate(104.25,266.8125)"/>
<path d="M0 0 C0.99 0 1.98 0 3 0 C3 1.65 3 3.3 3 5 C3.99 5.33 4.98 5.66 6 6 C6.33 6.99 6.66 7.98 7 9 C4.36 8.34 1.72 7.68 -1 7 C-1.33 5.68 -1.66 4.36 -2 3 C-1.34 2.01 -0.68 1.02 0 0 Z " fill="#0E67F1" transform="translate(347,262)"/>
<path d="M0 0 C3.3 1.65 6.6 3.3 10 5 C10 5.99 10 6.98 10 8 C6.44219804 7.39009109 3.3171411 6.4216319 0 5 C0 3.35 0 1.7 0 0 Z " fill="#2674E6" transform="translate(180,257)"/>
<path d="M0 0 C0.66 0 1.32 0 2 0 C2 0.66 2 1.32 2 2 C2.66 2 3.32 2 4 2 C4.6875 3.8125 4.6875 3.8125 5 6 C3.5625 7.75 3.5625 7.75 2 9 C2 8.34 2 7.68 2 7 C1.34 7 0.68 7 0 7 C0 6.34 0 5.68 0 5 C-0.66 4.67 -1.32 4.34 -2 4 C-1.34 2.68 -0.68 1.36 0 0 Z " fill="#2E7AEB" transform="translate(116,257)"/>
<path d="M0 0 C0.90105469 0.00902344 1.80210937 0.01804688 2.73046875 0.02734375 C3.41753906 0.03894531 4.10460937 0.05054688 4.8125 0.0625 C4.4825 0.7225 4.1525 1.3825 3.8125 2.0625 C2.4925 2.0625 1.1725 2.0625 -0.1875 2.0625 C-0.1875 3.7125 -0.1875 5.3625 -0.1875 7.0625 C-1.05375 6.134375 -1.05375 6.134375 -1.9375 5.1875 C-3.98999821 3.24902947 -5.62116582 2.16235751 -8.1875 1.0625 C-5.17259443 0.05753148 -3.14568308 -0.04085303 0 0 Z " fill="#367EE7" transform="translate(443.1875,235.9375)"/>
<path d="M0 0 C4.00768472 1.49439091 5.91194584 3.17890733 8.6875 6.375 C7.6975 6.375 6.7075 6.375 5.6875 6.375 C5.6875 5.715 5.6875 5.055 5.6875 4.375 C3.0475 4.375 0.4075 4.375 -2.3125 4.375 C-2.3125 3.715 -2.3125 3.055 -2.3125 2.375 C-3.3025 1.715 -4.2925 1.055 -5.3125 0.375 C-3.3125 -0.625 -3.3125 -0.625 0 0 Z " fill="#3374D7" transform="translate(367.3125,228.625)"/>
<path d="M0 0 C0.28875 0.598125 0.5775 1.19625 0.875 1.8125 C2.04742026 4.19327792 2.04742026 4.19327792 4 7 C4.66 6.67 5.32 6.34 6 6 C5.67 8.31 5.34 10.62 5 13 C3.0625 12.1875 3.0625 12.1875 1 11 C-0.28317892 7.15046324 -0.06643637 4.05261865 0 0 Z " fill="#3169C8" transform="translate(311,248)"/>
<path d="M0 0 C2.09846613 3.96574531 3.1469921 7.59279253 4 12 C3.34 12.66 2.68 13.32 2 14 C0.48046875 12.85546875 0.48046875 12.85546875 -1 11 C-1.07421875 8.30078125 -1.07421875 8.30078125 -0.6875 5.3125 C-0.56761719 4.31863281 -0.44773437 3.32476562 -0.32421875 2.30078125 C-0.21722656 1.54152344 -0.11023438 0.78226563 0 0 Z " fill="#2E6CD5" transform="translate(307,236)"/>
<path d="M0 0 C0.66 0.33 1.32 0.66 2 1 C1.34 2.65 0.68 4.3 0 6 C-0.99 5.67 -1.98 5.34 -3 5 C-3.33 5.99 -3.66 6.98 -4 8 C-6.0625 8.6875 -6.0625 8.6875 -8 9 C-6.4169423 4.7257442 -3.49431596 2.73468206 0 0 Z " fill="#3C77D4" transform="translate(424,229)"/>
<path d="M0 0 C-1 2 -1 2 -4.125 3.125 C-7.90058738 3.97755199 -11.14638912 4.15729024 -15 4 C-9.52123488 0.34748992 -6.56703301 -0.2189011 0 0 Z " fill="#487ED4" transform="translate(122,293)"/>
<path d="M0 0 C2.46104938 0.25448807 4.91743305 0.52772719 7.375 0.8125 C8.07367188 0.88275391 8.77234375 0.95300781 9.4921875 1.02539062 C11.34332338 1.24788292 13.17538205 1.61662522 15 2 C15.99 3.485 15.99 3.485 17 5 C15.10333474 4.91227545 13.20761007 4.80408699 11.3125 4.6875 C10.25675781 4.62949219 9.20101563 4.57148438 8.11328125 4.51171875 C4.75735089 3.96011665 2.74188745 2.97883899 0 1 C0 0.67 0 0.34 0 0 Z " fill="#5B88DC" transform="translate(346,269)"/>
<path d="M0 0 C0.66 0 1.32 0 2 0 C2.042721 1.66611905 2.04063832 3.33382885 2 5 C1 6 1 6 -1.50390625 6.09765625 C-3.01791016 6.08025391 -3.01791016 6.08025391 -4.5625 6.0625 C-5.57441406 6.05347656 -6.58632812 6.04445312 -7.62890625 6.03515625 C-8.41136719 6.02355469 -9.19382813 6.01195312 -10 6 C-10 5.34 -10 4.68 -10 4 C-6.7 4 -3.4 4 0 4 C0 2.68 0 1.36 0 0 Z " fill="#7396CE" transform="translate(215,226)"/>
<path d="M0 0 C4.8 3.32307692 4.8 3.32307692 5.8125 6.75 C5.874375 7.4925 5.93625 8.235 6 9 C6.66 9 7.32 9 8 9 C7.67 9.66 7.34 10.32 7 11 C0.42857143 6 0.42857143 6 -1 1 C-0.67 0.67 -0.34 0.34 0 0 Z " fill="#4E8AD9" transform="translate(83,259)"/>
<path d="M0 0 C-0.99 0.495 -0.99 0.495 -2 1 C-2 1.66 -2 2.32 -2 3 C-4.76264289 3.59732819 -7.16032769 4 -10 4 C-10.99 3.34 -11.98 2.68 -13 2 C-8.11922548 -0.44038726 -5.47332932 -1.46845421 0 0 Z " fill="#4688E6" transform="translate(91,195)"/>
<path d="M0 0 C5.94 0.99 5.94 0.99 12 2 C12 2.99 12 3.98 12 5 C8.37 4.67 4.74 4.34 1 4 C0.67 2.68 0.34 1.36 0 0 Z " fill="#3F7BD7" transform="translate(190,236)"/>
<path d="M0 0 C0 0.99 0 1.98 0 3 C-2.6224715 5.6224715 -4.35023127 5.64217954 -8 6 C-10.875 5.5625 -10.875 5.5625 -13 5 C-13 4.67 -13 4.34 -13 4 C-11.783125 3.71125 -10.56625 3.4225 -9.3125 3.125 C-6.08185352 2.32164208 -3.05679065 1.33734591 0 0 Z " fill="#5189DA" transform="translate(121,277)"/>
<path d="M0 0 C2.69648689 2.69648689 4.14784424 5.66611962 6 9 C5.34 9.66 4.68 10.32 4 11 C0 5.25 0 5.25 0 3 C-0.66 3 -1.32 3 -2 3 C-2 2.34 -2 1.68 -2 1 C-1.34 0.67 -0.68 0.34 0 0 Z " fill="#4D88DD" transform="translate(110,236)"/>
<path d="M0 0 C3.375 0.25 3.375 0.25 7 1 C8.5 2.875 8.5 2.875 9 5 C8.67 5.99 8.34 6.98 8 8 C6.66372225 6.85760183 5.33104612 5.71098945 4 4.5625 C3.2575 3.92441406 2.515 3.28632813 1.75 2.62890625 C1.1725 2.09136719 0.595 1.55382812 0 1 C0 0.67 0 0.34 0 0 Z " fill="#548BE1" transform="translate(122,213)"/>
<path d="M0 0 C0.33 0 0.66 0 1 0 C0.67 2.64 0.34 5.28 0 8 C-3.63 7.67 -7.26 7.34 -11 7 C-11 6.67 -11 6.34 -11 6 C-9.741875 5.938125 -8.48375 5.87625 -7.1875 5.8125 C-4.99389984 5.61529677 -4.99389984 5.61529677 -3 5 C-1.00916823 2.5748212 -1.00916823 2.5748212 0 0 Z " fill="#5990DF" transform="translate(367,257)"/>
<path d="M0 0 C3.82669043 3.42388092 5.72278474 6.00724943 7 11 C5 11 5 11 3.375 9.75 C2 8 2 8 2 4 C1.34 4 0.68 4 0 4 C0 2.68 0 1.36 0 0 Z " fill="#4E7FD2" transform="translate(115,234)"/>
<path d="M0 0 C3.96 0.33 7.92 0.66 12 1 C12.33 1.99 12.66 2.98 13 4 C9.41936487 4 7.52512014 3.65592475 4.25 2.5 C3.45078125 2.2215625 2.6515625 1.943125 1.828125 1.65625 C1.22484375 1.4396875 0.6215625 1.223125 0 1 C0 0.67 0 0.34 0 0 Z " fill="#4A82DD" transform="translate(110,208)"/>
<path d="M0 0 C0 1.98 0 3.96 0 6 C-0.33 5.01 -0.66 4.02 -1 3 C-1.928125 3.680625 -2.85625 4.36125 -3.8125 5.0625 C-5.3903125 6.0215625 -5.3903125 6.0215625 -7 7 C-7.99 6.67 -8.98 6.34 -10 6 C-9.34 6 -8.68 6 -8 6 C-8 5.01 -8 4.02 -8 3 C-1.125 0 -1.125 0 0 0 Z " fill="#638CE0" transform="translate(251,266)"/>
<path d="M0 0 C0.99 0 1.98 0 3 0 C3.66 1.65 4.32 3.3 5 5 C3.68 5.99 2.36 6.98 1 8 C0.67 6.35 0.34 4.7 0 3 C-0.99 3.495 -0.99 3.495 -2 4 C-1.34 2.68 -0.68 1.36 0 0 Z " fill="#0850C9" transform="translate(250,264)"/>
<path d="M0 0 C2 3 2 3 2.875 6.0625 C3.71071826 9.10913611 3.71071826 9.10913611 6.125 10.375 C6.74375 10.58125 7.3625 10.7875 8 11 C7.34 11.66 6.68 12.32 6 13 C1.90050429 8.69027374 0.36881356 6.14689273 0 0 Z " fill="#396BC7" transform="translate(339,256)"/>
<path d="M0 0 C0.99 0.495 0.99 0.495 2 1 C2.59896093 3.30710878 2.95654965 5.61688718 3.33984375 7.96875 C3.55769531 8.6390625 3.77554688 9.309375 4 10 C4.99 10.33 5.98 10.66 7 11 C6.34 11.66 5.68 12.32 5 13 C0.87010523 8.73688282 0.38728235 5.71241466 0 0 Z " fill="#4F80CC" transform="translate(171,255)"/>
<path d="M0 0 C0.33 0 0.66 0 1 0 C1.125 5.75 1.125 5.75 0 8 C-1.32 8 -2.64 8 -4 8 C-2.25 2.25 -2.25 2.25 0 0 Z " fill="#096CF9" transform="translate(209,260)"/>
<path d="M0 0 C0.66 0 1.32 0 2 0 C1.42365861 4.75481646 -0.55068521 7.97048212 -3 12 C-3.88336837 9.5332355 -4.1312406 8.36140628 -3.22265625 5.859375 C-2.83980469 5.16328125 -2.45695313 4.4671875 -2.0625 3.75 C-1.68222656 3.04359375 -1.30195313 2.3371875 -0.91015625 1.609375 C-0.60980469 1.07828125 -0.30945313 0.5471875 0 0 Z " fill="#2C69CD" transform="translate(138,255)"/>
<path d="M0 0 C1.96301592 3.50538557 2.95902388 7.13351728 4 11 C3.34 11.66 2.68 12.32 2 13 C1.47044766 11.21089097 0.9516063 9.41860852 0.4375 7.625 C0.14746094 6.62726563 -0.14257812 5.62953125 -0.44140625 4.6015625 C-1 2 -1 2 0 0 Z " fill="#4B7DD8" transform="translate(292,226)"/>
<path d="M0 0 C4.82360189 -0.19294408 8.49646738 0.24252386 13 2 C13 2.33 13 2.66 13 3 C6.07 2.505 6.07 2.505 -1 2 C-0.67 1.34 -0.34 0.68 0 0 Z " fill="#6093D2" transform="translate(431,227)"/>
<path d="M0 0 C0.99 0.33 1.98 0.66 3 1 C3.69289369 4.72430357 4.11144596 8.21083746 4 12 C1.07034088 9.07034088 0.05866431 6.319947 -0.125 2.1875 C-0.08375 1.465625 -0.0425 0.74375 0 0 Z " fill="#3C75D1" transform="translate(287,214)"/>
<path d="M0 0 C1.58206057 0.00667536 3.16410534 0.0186375 4.74609375 0.03515625 C5.55240234 0.03966797 6.35871094 0.04417969 7.18945312 0.04882812 C9.18753131 0.06065107 11.18557158 0.07858711 13.18359375 0.09765625 C13.18359375 0.42765625 13.18359375 0.75765625 13.18359375 1.09765625 C11.95382813 1.18853516 11.95382813 1.18853516 10.69921875 1.28125 C9.08273438 1.40693359 9.08273438 1.40693359 7.43359375 1.53515625 C6.36625 1.61636719 5.29890625 1.69757813 4.19921875 1.78125 C1.27761967 1.99732449 1.27761967 1.99732449 -1.08203125 2.7578125 C-1.94054687 2.92603516 -1.94054687 2.92603516 -2.81640625 3.09765625 C-3.47640625 2.43765625 -4.13640625 1.77765625 -4.81640625 1.09765625 C-3.81640625 0.09765625 -3.81640625 0.09765625 0 0 Z " fill="#5081E2" transform="translate(94.81640625,281.90234375)"/>
<path d="M0 0 C0.99 0.33 1.98 0.66 3 1 C3 3.97 3 6.94 3 10 C2.01 10 1.02 10 0 10 C-1.125 2.25 -1.125 2.25 0 0 Z " fill="#0C6BFD" transform="translate(421,234)"/>
<path d="M0 0 C0.33 0 0.66 0 1 0 C0.91245449 1.75091019 0.80426627 3.50079551 0.6875 5.25 C0.62949219 6.22453125 0.57148438 7.1990625 0.51171875 8.203125 C-0.04636524 11.25341611 -0.96369776 12.70711276 -3 15 C-2.5547115 9.72684667 -1.91626837 4.98229776 0 0 Z " fill="#3D6DC8" transform="translate(326,220)"/>
<path d="M0 0 C0.99 0.33 1.98 0.66 3 1 C2.67 2.32 2.34 3.64 2 5 C0.68 5.33 -0.64 5.66 -2 6 C-2 2 -2 2 0 0 Z " fill="#086DFA" transform="translate(277,216)"/>
<path d="M0 0 C1.86551426 3.58752742 3.42535928 7.27812193 5 11 C4.01 11.495 4.01 11.495 3 12 C0.53226147 8.35203869 -0.60004679 5.39948529 -1 1 C-0.67 0.67 -0.34 0.34 0 0 Z " fill="#3266C8" transform="translate(414,255)"/>
<path d="M0 0 C0.33 0 0.66 0 1 0 C1.2236337 1.41433206 1.42826476 2.83167618 1.625 4.25 C1.74101563 5.03890625 1.85703125 5.8278125 1.9765625 6.640625 C2.00319395 9.32152459 1.36592084 10.72694089 0 13 C-0.99 12.67 -1.98 12.34 -3 12 C-2.34 11.01 -1.68 10.02 -1 9 C-0.54605448 6.72087062 -0.54605448 6.72087062 -0.375 4.3125 C-0.30023438 3.50425781 -0.22546875 2.69601563 -0.1484375 1.86328125 C-0.09945312 1.24839844 -0.05046875 0.63351563 0 0 Z " fill="#739EDF" transform="translate(115,248)"/>
<path d="M0 0 C1.31625194 2.63250388 0.74813658 3.80179056 0.0625 6.625 C-0.13214844 7.44226563 -0.32679688 8.25953125 -0.52734375 9.1015625 C-0.68332031 9.72804687 -0.83929688 10.35453125 -1 11 C-1.66 10.67 -2.32 10.34 -3 10 C-2.25 3.375 -2.25 3.375 0 0 Z " fill="#386CCE" transform="translate(342,235)"/>
<path d="M0 0 C0.99 0 1.98 0 3 0 C2.37240135 2.92879371 1.41377341 5.36095629 0 8 C-0.66 8 -1.32 8 -2 8 C-2.125 5.125 -2.125 5.125 -2 2 C-1.34 1.34 -0.68 0.68 0 0 Z " fill="#1465EB" transform="translate(297,232)"/>
<path d="M0 0 C1.48280196 0.78483659 2.9611498 1.57809334 4.4375 2.375 C5.67306641 3.03628906 5.67306641 3.03628906 6.93359375 3.7109375 C9 5 9 5 10 7 C7.23723823 6.47731534 4.6739124 5.89130413 2 5 C2 4.34 2 3.68 2 3 C1.34 3 0.68 3 0 3 C0 2.01 0 1.02 0 0 Z " fill="#568EDB" transform="translate(126,198)"/>
<path d="M0 0 C0.99 0.495 0.99 0.495 2 1 C2.33 1.99 2.66 2.98 3 4 C3.66 4.66 4.32 5.32 5 6 C4.67 6.99 4.34 7.98 4 9 C4.99 9.33 5.98 9.66 7 10 C5.35 9.67 3.7 9.34 2 9 C1.34 6.03 0.68 3.06 0 0 Z " fill="#3E73CA" transform="translate(303,262)"/>
<path d="M0 0 C2.97 0.495 2.97 0.495 6 1 C6.33 2.98 6.66 4.96 7 7 C5.83040013 6.02433888 4.66438823 5.044375 3.5 4.0625 C2.8503125 3.51722656 2.200625 2.97195313 1.53125 2.41015625 C1.0259375 1.94480469 0.520625 1.47945313 0 1 C0 0.67 0 0.34 0 0 Z " fill="#5388E0" transform="translate(64,281)"/>
<path d="M0 0 C0.66 0 1.32 0 2 0 C1.67 0.99 1.34 1.98 1 3 C-2.3 3.33 -5.6 3.66 -9 4 C-9.33 3.34 -9.66 2.68 -10 2 C-9.04287109 1.90912109 -9.04287109 1.90912109 -8.06640625 1.81640625 C-6.82697266 1.69072266 -6.82697266 1.69072266 -5.5625 1.5625 C-4.73878906 1.48128906 -3.91507812 1.40007812 -3.06640625 1.31640625 C-1.01337975 1.21069185 -1.01337975 1.21069185 0 0 Z " fill="#5D80CF" transform="translate(410,270)"/>
<path d="M0 0 C0.33 0 0.66 0 1 0 C3 7.625 3 7.625 3 11 C1.68 10.34 0.36 9.68 -1 9 C-0.67 6.03 -0.34 3.06 0 0 Z " fill="#216ADD" transform="translate(224,256)"/>
<path d="M0 0 C0.99 0 1.98 0 3 0 C3.33 0.66 3.66 1.32 4 2 C4.99 2.66 5.98 3.32 7 4 C7 4.99 7 5.98 7 7 C3.17053157 5.54744301 1.87949705 3.57104439 0 0 Z " fill="#528DDF" transform="translate(173,237)"/>
<path d="M0 0 C1.65 0 3.3 0 5 0 C5 0.99 5 1.98 5 3 C4.34 3 3.68 3 3 3 C2.67 3.99 2.34 4.98 2 6 C1.34 6 0.68 6 0 6 C0 4.02 0 2.04 0 0 Z " fill="#3775D8" transform="translate(71,216)"/>
<path d="M0 0 C1.32 0.33 2.64 0.66 4 1 C3.67 3.64 3.34 6.28 3 9 C2.34 8.67 1.68 8.34 1 8 C0.40644386 5.35139573 0.25790731 2.70802678 0 0 Z " fill="#0C63E9" transform="translate(302,254)"/>
<path d="M0 0 C2.9375 0.75 2.9375 0.75 6 2 C6.875 4.125 6.875 4.125 7 6 C5.1875 5.8125 5.1875 5.8125 3 5 C1.25 2.4375 1.25 2.4375 0 0 Z " fill="#3C7ED9" transform="translate(103,231)"/>
<path d="M0 0 C2.04119788 1.61594832 4.04072937 3.2856382 6 5 C6 5.66 6 6.32 6 7 C6.66 7.33 7.32 7.66 8 8 C4.82461668 7.65978036 3.97723135 6.97533396 1.75 4.5625 C0 2 0 2 0 0 Z " fill="#5884CE" transform="translate(71,267)"/>
<path d="M0 0 C1.32 1.65 2.64 3.3 4 5 C3.01 5.99 2.02 6.98 1 8 C0.34 7.67 -0.32 7.34 -1 7 C-1.04254356 5.00045254 -1.04080783 2.99958364 -1 1 C-0.67 0.67 -0.34 0.34 0 0 Z " fill="#4180E1" transform="translate(112,263)"/>
<path d="M0 0 C1.68762851 1.6454378 3.3540349 3.31288577 5 5 C5 5.33 5 5.66 5 6 C3.02 6 1.04 6 -1 6 C-1.042721 4.33388095 -1.04063832 2.66617115 -1 1 C-0.67 0.67 -0.34 0.34 0 0 Z " fill="#5889DD" transform="translate(89,257)"/>
<path d="M0 0 C0.99 0 1.98 0 3 0 C4.4606285 2.64738916 5 3.89448334 5 7 C3.68 6.67 2.36 6.34 1 6 C0.67 4.02 0.34 2.04 0 0 Z " fill="#0E65E8" transform="translate(205,241)"/>
<path d="M0 0 C2.0625 0.4375 2.0625 0.4375 4 1 C4 1.99 4 2.98 4 4 C2.68 4.33 1.36 4.66 0 5 C-0.5625 3.0625 -0.5625 3.0625 -1 1 C-0.67 0.67 -0.34 0.34 0 0 Z " fill="#3377E1" transform="translate(123,288)"/>
<path d="M0 0 C3.96 0 7.92 0 12 0 C12 0.33 12 0.66 12 1 C7.915021 1.54466387 4.1274515 2 0 2 C0 1.34 0 0.68 0 0 Z " fill="#1B6EF2" transform="translate(93,284)"/>
<path d="M0 0 C3.57104439 1.87949705 5.54744301 3.17053157 7 7 C4.13302508 5.71480435 2.02392288 4.42870746 0 2 C0 1.34 0 0.68 0 0 Z " fill="#5284CE" transform="translate(208,241)"/>
<path d="M0 0 C0.99 0 1.98 0 3 0 C2.34 2.64 1.68 5.28 1 8 C0.34 7.67 -0.32 7.34 -1 7 C-0.67 4.69 -0.34 2.38 0 0 Z " fill="#4D7CD3" transform="translate(330,241)"/>
<path d="M0 0 C0.66 0 1.32 0 2 0 C1.67 1.65 1.34 3.3 1 5 C0.01 5 -0.98 5 -2 5 C-2.66 4.34 -3.32 3.68 -4 3 C-2.68 2.67 -1.36 2.34 0 2 C0 1.34 0 0.68 0 0 Z " fill="#2867D6" transform="translate(338,220)"/>
<path d="M0 0 C2.79872437 2.52788007 4.45773019 4.20411134 5 8 C4.01 8 3.02 8 2 8 C0.23537317 4.91190305 0 3.76687864 0 0 Z " fill="#5890D9" transform="translate(144,214)"/>
<path d="M0 0 C0.33 0.99 0.66 1.98 1 3 C-2.26760563 8.63380282 -2.26760563 8.63380282 -5 10 C-3.84414715 6.08788267 -2.64465038 3.1254959 0 0 Z " fill="#5384CC" transform="translate(59,213)"/>
<path d="M0 0 C1.98 0.495 1.98 0.495 4 1 C3.625 2.9375 3.625 2.9375 3 5 C2.01 5.495 2.01 5.495 1 6 C1 5.01 1 4.02 1 3 C0.34 3 -0.32 3 -1 3 C-0.67 2.01 -0.34 1.02 0 0 Z " fill="#2C77E2" transform="translate(136,278)"/>
<path d="M0 0 C1.98 0 3.96 0 6 0 C5.34 1.98 4.68 3.96 4 6 C0 1.125 0 1.125 0 0 Z " fill="#4C86DE" transform="translate(364,238)"/>
<path d="M0 0 C2.31 0 4.62 0 7 0 C6.67 1.65 6.34 3.3 6 5 C5.67 4.34 5.34 3.68 5 3 C4.34 3 3.68 3 3 3 C3 2.34 3 1.68 3 1 C1.68 1.33 0.36 1.66 -1 2 C-0.67 1.34 -0.34 0.68 0 0 Z " fill="#1363E2" transform="translate(92,228)"/>
</svg>
